<svg width="199" height="202" viewBox="0 0 199 202" fill="none" xmlns="http://www.w3.org/2000/svg">
<path d="M187.901 34.9153C187.901 34.9153 175.008 5.40844 146.514 1.03832C118.021 -3.33181 98.1209 17.9768 77.1782 28.9303C66.2023 34.6499 53.6625 32.431 42.0083 35.1976C4.74759 44.0564 -9.28896 99.5638 6.23309 131.12C19.6867 158.448 43.3201 172.653 79.3308 175.934C115.341 179.214 140.601 183.037 172.85 156.263C205.099 129.488 202.947 73.7383 187.901 34.9153Z" fill="#92E3A9"/>
<path opacity="0.7" d="M187.901 34.9153C187.901 34.9153 175.008 5.40844 146.514 1.03832C118.021 -3.33181 98.1209 17.9768 77.1782 28.9303C66.2023 34.6499 53.6625 32.431 42.0083 35.1976C4.74759 44.0564 -9.28896 99.5638 6.23309 131.12C19.6867 158.448 43.3201 172.653 79.3308 175.934C115.341 179.214 140.601 183.037 172.85 156.263C205.099 129.488 202.947 73.7383 187.901 34.9153Z" fill="white"/>
<path d="M101.84 201.769C153.458 201.769 195.304 198.739 195.304 195.003C195.304 191.266 153.458 188.237 101.84 188.237C50.2209 188.237 8.37567 191.266 8.37567 195.003C8.37567 198.739 50.2209 201.769 101.84 201.769Z" fill="#92E3A9"/>
<path opacity="0.5" d="M101.84 201.769C153.458 201.769 195.304 198.739 195.304 195.003C195.304 191.266 153.458 188.237 101.84 188.237C50.2209 188.237 8.37567 191.266 8.37567 195.003C8.37567 198.739 50.2209 201.769 101.84 201.769Z" fill="white"/>
<path d="M159.047 187.997C159.976 188.907 160.965 189.751 162.007 190.526C163.095 191.233 163.98 191.335 163.879 191.94C163.779 192.546 163.095 192.749 161.514 192.851C159.933 192.953 158.655 192.546 157.865 191.72C157.074 190.894 156.385 191.013 155.594 190.809C154.804 190.605 154.608 187.98 155.303 187.477C155.998 186.973 159.047 187.997 159.047 187.997Z" fill="#263238" stroke="#263238" stroke-linecap="round" stroke-linejoin="round"/>
<path d="M155.697 188.503C155.697 188.503 157.866 191.84 158.461 192.548C159.055 193.255 159.94 193.962 159.447 194.064C158.265 194.431 157.013 194.501 155.798 194.267C154.116 193.86 152.636 191.235 152.345 190.732C152.053 190.228 151.257 191.031 151.554 189.515C151.732 188.606 152.101 187.745 152.636 186.992C152.636 186.992 153.92 188.604 155.697 188.503Z" fill="#263238" stroke="#263238" stroke-linecap="round" stroke-linejoin="round"/>
<path d="M165.95 162.73L159.044 187.996L158.158 188.097C157.518 188.132 156.877 188.028 156.28 187.792L160.428 162.628C160.428 162.628 163.489 163.941 165.95 162.73Z" fill="#92E3A9" stroke="#263238" stroke-linecap="round" stroke-linejoin="round"/>
<path d="M168.904 101.484L169.111 108.596L171.701 127.072L169.627 127.497L166.314 116.346C166.314 116.346 163.304 107.747 163.41 105.303C163.517 102.859 165.692 96.8171 167.452 96.3871C169.212 95.9572 168.904 101.484 168.904 101.484Z" fill="white" stroke="#263238" stroke-linecap="round" stroke-linejoin="round"/>
<path d="M171.702 127.074C171.702 127.074 172.027 129.705 171.791 130.893C171.556 132.081 170.519 134.695 170.054 134.932C169.588 135.17 168.899 130.893 168.899 129.467C168.866 129.105 168.915 128.74 169.041 128.399C169.167 128.059 169.368 127.751 169.628 127.499L171.702 127.074Z" fill="white" stroke="#263238" stroke-linecap="round" stroke-linejoin="round"/>
<path d="M149.482 115.532C148.272 118.517 147.637 121.708 147.609 124.934C147.509 130.489 151.752 138.477 153.624 142.013C155.497 145.549 161.713 154.85 161.713 154.85C161.713 154.85 157.178 164.552 156.982 167.482C156.786 170.413 152.638 186.989 152.638 186.989C152.779 187.3 152.984 187.578 153.239 187.804C153.494 188.03 153.793 188.2 154.118 188.301C154.638 188.414 155.167 188.481 155.698 188.499C155.698 188.499 168.031 160.105 168.423 157.678C168.816 155.251 169.41 154.239 168.984 152.723C168.72 151.56 168.555 150.377 168.491 149.187C168.491 149.187 169.875 142.619 170.071 132.311C170.268 122.003 169.875 117.455 169.085 115.028C169.113 115.028 158.753 118.767 149.482 115.532Z" fill="#92E3A9" stroke="#263238" stroke-linecap="round" stroke-linejoin="round"/>
<path d="M166.925 66.8928C166.925 66.8928 169.941 68.4316 169.358 71.0453C168.775 73.6589 166.808 74.6094 165.765 76.7478C164.722 78.8863 166.46 83.1575 165.883 86.2464C165.305 89.3353 163.22 91.9433 161.465 89.9519C159.711 87.9606 159.616 79.9725 161.006 75.243C162.396 70.5135 164.268 65.8236 166.925 66.8928Z" fill="#263238" stroke="#263238" stroke-linecap="round" stroke-linejoin="round"/>
<path d="M158.955 81.3775C157.039 82.0847 155.066 82.626 153.058 82.9955C150.396 83.3972 147.632 83.9064 147.632 86.3334C147.632 88.7604 153.451 104.318 153.451 104.318L148.916 116.244C148.916 116.244 151.578 117.941 158.087 118.671C162.128 119.05 166.195 118.28 169.825 116.447C169.825 116.447 167.459 108.866 167.459 105.738C167.459 102.609 170.716 101.088 170.419 96.7428C170.122 92.398 168.939 88.6529 167.162 86.2315C165.385 83.8102 161.556 81.7057 160.749 81.4794C160.16 81.3543 159.555 81.32 158.955 81.3775V81.3775Z" fill="white" stroke="#263238" stroke-linecap="round" stroke-linejoin="round"/>
<path d="M166.153 99.7236C166.153 99.7236 160.418 103.797 158.08 104.866" stroke="#263238" stroke-linecap="round" stroke-linejoin="round"/>
<path d="M151.934 98.8665C151.934 98.8665 154.905 95.6532 155.331 93.2941" stroke="#263238" stroke-linecap="round" stroke-linejoin="round"/>
<path d="M166.783 87.9399L169.76 92.8675" stroke="#263238" stroke-linecap="round" stroke-linejoin="round"/>
<path d="M158.261 73.188C158.261 73.188 158.462 76.3222 158.462 78.3419C158.462 80.3615 157.767 81.2724 158.362 83.2977C158.956 85.323 161.024 89.3567 162.011 87.8235C162.997 86.2904 163.491 78.9302 163.491 78.9302C163.491 78.9302 161.518 75.9997 160.531 74.5854C159.544 73.1711 158.462 72.2772 158.261 73.188Z" fill="white" stroke="#263238" stroke-linecap="round" stroke-linejoin="round"/>
<path d="M165.853 68.0372C166.785 69.7116 167.326 71.5789 167.434 73.4965C167.63 76.7268 167.136 79.1538 165.46 80.6699C163.784 82.1861 162.994 82.4916 161.536 81.9825C160.079 81.4733 158.481 75.5161 158.481 75.5161C158.481 75.5161 156.603 75.4143 154.832 72.4838C153.061 69.5533 155.718 65.0048 159.563 64.5013C163.409 63.9978 165.853 68.0372 165.853 68.0372Z" fill="white" stroke="#263238" stroke-linecap="round" stroke-linejoin="round"/>
<path d="M160.037 75.2105C160.037 75.2105 158.658 72.28 157.767 73.5133C156.875 74.7466 157.475 76.8454 158.165 77.1509C158.854 77.4564 159.348 76.5456 159.348 76.5456" fill="white"/>
<path d="M160.037 75.2105C160.037 75.2105 158.658 72.28 157.767 73.5133C156.875 74.7466 157.475 76.8454 158.165 77.1509C158.854 77.4564 159.348 76.5456 159.348 76.5456" stroke="#263238" stroke-linecap="round" stroke-linejoin="round"/>
<path d="M149.525 83.8571C149.525 83.8571 146.307 84.0664 146.515 87.7833C146.722 91.5002 145.069 109.768 144.962 111.889C144.856 114.011 151.493 130.259 151.493 130.259L153.875 129.942L150.041 110.933L152.631 96.1731C152.837 95.5791 152.906 94.9455 152.835 94.3203C152.763 93.6951 152.551 93.0945 152.216 92.5638" fill="white"/>
<path d="M149.525 83.8571C149.525 83.8571 146.307 84.0664 146.515 87.7833C146.722 91.5002 145.069 109.768 144.962 111.889C144.856 114.011 151.493 130.259 151.493 130.259L153.875 129.942L150.041 110.933L152.631 96.1731C152.837 95.5791 152.906 94.9455 152.835 94.3203C152.763 93.6951 152.551 93.0945 152.216 92.5638" stroke="#263238" stroke-linecap="round" stroke-linejoin="round"/>
<path d="M158.582 74.3689L159.294 74.0521L162.058 72.8244C165.533 71.28 166.111 69.3791 166.923 66.8899C167.736 64.4007 167.041 64.7515 162.635 63.207C158.229 61.6626 155.348 62.4942 153.016 65.3455C150.684 68.1968 151.048 75.7945 150.213 78.4082C149.378 81.0219 148.475 82.6795 150.213 85.2931C151.951 87.9068 158.442 92.2969 159.137 88.6196C159.832 84.9424 157.539 77.8142 158.582 74.3689Z" fill="#263238" stroke="#263238" stroke-linecap="round" stroke-linejoin="round"/>
<path d="M153.876 129.941C154.66 130.405 155.385 130.963 156.034 131.604C156.595 132.317 157.307 133.867 157.189 134.337C157.071 134.806 156.146 133.149 155.687 132.911C155.227 132.673 156.612 135.525 156.729 136.119C156.847 136.713 156.729 136.945 155.569 136.475C154.409 136.005 153.714 135.406 152.553 134.099C151.393 132.792 151.494 130.258 151.494 130.258L153.876 129.941Z" fill="white" stroke="#263238" stroke-linecap="round" stroke-linejoin="round"/>
<path d="M161.128 122.463C161.128 122.463 167.507 139.559 168.202 147.875" stroke="#263238" stroke-linecap="round" stroke-linejoin="round"/>
<path d="M165.762 122.106C165.762 122.106 164.26 125.427 163.1 126.734" stroke="#263238" stroke-linecap="round" stroke-linejoin="round"/>
<path d="M131.711 113.953C131.711 113.953 129.132 97.8101 129.132 91.2386C129.132 84.667 130.915 78.7927 133.891 81.4498L138.706 117.713L140.724 129.188C141.481 132.291 141.375 135.285 140.904 136.862C140.433 138.439 139.536 138.222 139.811 136.925C140.085 135.628 139.402 133.742 139.082 134.068C138.762 134.394 139.514 135.902 138.891 136.599C138.269 137.296 138.056 135.994 137.77 134.314C137.484 132.633 138.269 129.971 138.269 129.971L131.711 113.953Z" fill="white" stroke="#263238" stroke-linecap="round" stroke-linejoin="round"/>
<path d="M133.353 80.662C134.527 81.7133 135.318 83.1508 135.595 84.7347C135.965 87.3004 139.547 105.883 139.547 105.883C139.547 105.883 138.426 106.913 135.472 108.065C133.608 108.773 131.647 109.166 129.664 109.229L129.294 82.8263" fill="#92E3A9"/>
<path d="M133.353 80.662C134.527 81.7133 135.318 83.1508 135.595 84.7347C135.965 87.3004 139.547 105.883 139.547 105.883C139.547 105.883 138.426 106.913 135.472 108.065C133.608 108.773 131.647 109.166 129.664 109.229L129.294 82.8263" stroke="#263238" stroke-linecap="round" stroke-linejoin="round"/>
<path d="M132.904 105.974H135.477L136.648 103.09H138.991" stroke="#263238" stroke-linecap="round" stroke-linejoin="round"/>
<path d="M98.0302 102.182C99.639 96.2712 102.924 86.3275 103.557 84.1963C104.421 81.2838 105.906 80.5256 105.906 80.5256L108.148 94.703L107.285 96.5987C107.285 96.5987 104.886 103.44 103.064 106.818L108.025 117.606L109.757 121.403L107.515 124.695C107.515 124.695 97.3911 108.61 96.8642 107.461C96.3372 106.313 98.0302 102.182 98.0302 102.182Z" fill="white" stroke="#263238" stroke-linecap="round" stroke-linejoin="round"/>
<path d="M106.528 82.295C105.279 82.6733 104.219 83.512 103.563 84.6419C102.329 86.6238 96.2754 106.538 96.2754 106.538C97.5498 107.49 99.0306 108.127 100.597 108.397C101.86 108.627 103.151 108.669 104.426 108.52L108.008 99.1159" fill="#92E3A9"/>
<path d="M106.528 82.295C105.279 82.6733 104.219 83.512 103.563 84.6419C102.329 86.6238 96.2754 106.538 96.2754 106.538C97.5498 107.49 99.0306 108.127 100.597 108.397C101.86 108.627 103.151 108.669 104.426 108.52L108.008 99.1159" stroke="#263238" stroke-linecap="round" stroke-linejoin="round"/>
<path d="M97.2928 103.443L99.636 105.324L102.686 104.151L104.558 106.026" stroke="#263238" stroke-linecap="round" stroke-linejoin="round"/>
<path d="M135.528 187.366C135.528 187.366 135.528 187.935 138.661 190.909C141.795 193.883 142.428 194.706 141.548 195.725C140.668 196.744 136.402 194.877 135.023 193.883C133.644 192.89 134.272 192.89 132.641 192.042C131.009 191.194 131.761 188.214 132.013 187.505C132.265 186.796 135.528 187.366 135.528 187.366Z" fill="white" stroke="#263238" stroke-linecap="round" stroke-linejoin="round"/>
<path d="M105.178 188.778C105.178 188.778 105.178 189.278 102.039 191.917C98.9001 194.556 98.2723 195.314 99.1524 196.189C100.032 197.065 104.298 195.437 105.677 194.556C107.056 193.674 106.434 193.68 108.065 192.922C109.697 192.164 108.94 189.553 108.693 188.902C108.447 188.251 105.178 188.778 105.178 188.778Z" fill="white" stroke="#263238" stroke-linecap="round" stroke-linejoin="round"/>
<path d="M107.091 140.051C106.693 135.767 107.281 124.463 107.281 123.444C107.281 122.426 109.176 118.284 109.725 117.118L109.781 115.781C109.781 115.781 129.3 115.03 131.879 114.074C131.879 114.074 135.198 127.728 135.568 137.815C135.938 147.902 137.591 160.248 137.221 167.348C136.93 173.037 136.661 184.376 136.42 188.182C136.392 188.617 136.226 189.032 135.947 189.364C135.669 189.696 135.292 189.928 134.872 190.025L134.418 190.127C134.148 190.19 133.868 190.195 133.596 190.141C133.324 190.087 133.066 189.977 132.839 189.816C132.611 189.655 132.419 189.448 132.275 189.208C132.131 188.968 132.038 188.7 132.002 188.421C131.094 181.025 127.748 156.22 126.357 151.663C124.676 146.241 121.312 131.569 121.312 131.569C121.312 131.569 113.464 167.74 112.562 172.599C111.659 177.458 108.694 188.489 108.694 188.489C107.926 188.789 107.12 188.981 106.3 189.058C105.616 189.026 104.939 188.9 104.288 188.682L107.091 140.051Z" fill="#263238" stroke="#263238" stroke-linecap="round" stroke-linejoin="round"/>
<path d="M120.542 76.9054C120.542 76.9054 125.301 77.8836 128.518 78.8619C131.736 79.8402 133.877 80.4502 133.877 81.5551C133.877 82.66 132.448 115.507 132.448 115.507C132.448 115.507 132.33 116.854 129.471 117.234C126.612 117.613 111.494 118.085 110.541 117.844C109.588 117.602 109.229 116.618 109.112 115.15C108.994 113.683 105.3 82.5161 105.541 81.0544C105.782 79.5928 117.447 77.383 117.8 77.2621C118.665 76.8895 119.613 76.7661 120.542 76.9054Z" fill="#92E3A9" stroke="#263238" stroke-linecap="round" stroke-linejoin="round"/>
<path d="M132.903 95.3558C132.903 95.3558 127.981 107.044 121.422 113.014" stroke="#263238" stroke-linecap="round" stroke-linejoin="round"/>
<path d="M123.059 104.962C123.059 104.962 116.271 114.961 112.521 116.758" stroke="#263238" stroke-linecap="round" stroke-linejoin="round"/>
<path d="M106.665 93.0745L111.116 89.5885L114.631 93.6509L119.553 89.8802L123.533 94.2342L128.219 89.0121L131.969 93.6509L133.371 89.5885" stroke="#263238" stroke-linecap="round" stroke-linejoin="round"/>
<path d="M123.458 69.0791C123.458 69.0791 124.49 65.9596 125.005 68.4552C125.521 70.9509 123.716 74.0636 122.685 73.1277" fill="white"/>
<path d="M123.458 69.0791C123.458 69.0791 124.49 65.9596 125.005 68.4552C125.521 70.9509 123.716 74.0636 122.685 73.1277" stroke="#263238" stroke-linecap="round" stroke-linejoin="round"/>
<path d="M112.903 69.5617C112.903 69.5617 110.711 67.8184 110.84 70.1982C110.969 72.5779 112.903 75.2828 113.542 73.8577" fill="white"/>
<path d="M112.903 69.5617C112.903 69.5617 110.711 67.8184 110.84 70.1982C110.969 72.5779 112.903 75.2828 113.542 73.8577" stroke="#263238" stroke-linecap="round" stroke-linejoin="round"/>
<path d="M122.685 72.1583L122.557 80.8655C122.534 81.3553 122.423 81.8355 122.229 82.278C122.036 82.7205 121.763 83.1166 121.428 83.4432C121.092 83.7698 120.701 84.0204 120.276 84.1804C119.851 84.3404 119.401 84.4067 118.952 84.3753C115.477 84.3753 115.589 80.0217 115.589 80.0217L114.815 73.0021C114.815 73.0021 120.37 73.6991 122.685 72.1583Z" fill="white" stroke="#263238" stroke-linecap="round" stroke-linejoin="round"/>
<path d="M111.97 68.0636C111.97 68.0636 110.451 63.0376 114.543 60.0398C118.636 57.0419 123.042 60.8558 123.557 64.6578C124.073 68.4598 123.686 73.4858 121.758 76.3358C119.83 79.1859 118.624 79.3928 116.477 77.6958C114.33 75.9988 112.099 71.3217 111.97 68.0636Z" fill="white" stroke="#263238" stroke-linecap="round" stroke-linejoin="round"/>
<path d="M112.975 65.7043C112.975 65.7043 113.468 67.6672 113.345 68.4496C113.222 69.232 113.961 71.3185 112.852 71.1949C111.742 71.0714 111.248 65.7593 111.248 65.7593L112.975 65.7043Z" fill="#263238" stroke="#263238" stroke-linecap="round" stroke-linejoin="round"/>
<path d="M123.582 69.1412C123.582 69.1412 122.595 70.0819 122.595 69.0068C122.595 67.9317 123.335 67.3942 122.719 66.5634C122.102 65.7327 120.869 65.2196 120.869 63.8757V61.5912C119.413 63.1711 117.8 64.5684 116.059 65.7571C113.817 67.101 111.619 67.9073 109.893 67.2354C108.166 66.5634 110.509 64.1445 110.509 64.1445C110.509 64.1445 107.92 65.6227 107.92 63.0694C107.92 60.5161 112.23 57.1564 116.177 57.1564C120.123 57.1564 121.48 59.9785 121.48 59.9785C121.48 59.9785 123.823 59.9785 124.193 62.2631C124.563 64.5476 123.582 69.1412 123.582 69.1412Z" fill="#263238" stroke="#263238" stroke-linecap="round" stroke-linejoin="round"/>
<path d="M74.1871 189.882C74.1871 189.882 71.0199 192.919 70.0109 195.395C69.0019 197.871 71.5693 197.601 73.9349 195.855C76.3005 194.109 76.7377 189.371 76.7377 189.371C76.7377 189.371 75.241 189.685 74.1871 189.882Z" fill="#92E3A9" stroke="#263238" stroke-linecap="round" stroke-linejoin="round"/>
<path d="M82.9877 189.245C82.9877 189.245 83.3129 193.563 84.1369 195.949C84.9609 198.335 87.2481 199.166 87.9824 197.234C88.7167 195.303 85.6616 189.116 85.6616 189.116C85.6616 189.116 83.9351 189.7 82.9877 189.245Z" fill="#92E3A9" stroke="#263238" stroke-linecap="round" stroke-linejoin="round"/>
<path d="M63.6092 118.939C63.6092 118.939 61.3165 124.424 62.4881 133.098C63.6597 141.773 66.9727 149.178 67.5837 153.512C68.1947 157.847 67.7126 166.274 69.8764 172.781C72.0402 179.288 74.2096 189.883 74.2096 189.883C74.637 190.058 75.1063 190.102 75.559 190.011C76.0116 189.921 76.4275 189.698 76.7546 189.372C76.7546 189.372 77.2647 172.27 77.3936 163.978C77.5226 155.685 76.3734 142.924 76.5023 140.498C76.6313 138.073 77.6235 121.869 77.6235 121.869C77.6235 121.869 66.9222 120.848 63.6092 118.939Z" fill="#263238" stroke="#263238" stroke-linecap="round" stroke-linejoin="round"/>
<path d="M75.9699 122.001C75.9699 122.001 74.6974 136.419 75.5887 147.901C76.48 159.382 79.1539 172.043 80.5553 177.657C81.9568 183.271 82.9882 189.245 82.9882 189.245C82.9882 189.245 84.6699 190.52 85.6621 189.116C85.6621 189.116 86.5534 175.849 86.6823 168.702C86.8113 161.555 85.5612 157.215 85.5612 152.751C85.5612 148.288 89.3843 135.526 89.8944 129.783C90.4045 124.039 90.5334 123.147 89.5132 120.087C88.493 117.027 77.9207 118.964 76.7715 119.834C76.4398 120.076 76.1867 120.411 76.0441 120.796C75.9015 121.182 75.8757 121.601 75.9699 122.001V122.001Z" fill="#263238" stroke="#263238" stroke-linecap="round" stroke-linejoin="round"/>
<path d="M77.378 163.977C77.378 163.977 74.9956 152.676 75.5001 145.029C75.7524 141.233 76.8567 128.91 76.8567 128.91" stroke="white" stroke-linecap="round" stroke-linejoin="round"/>
<path d="M73.8676 127.142L76.6592 131.044" stroke="white" stroke-linecap="round" stroke-linejoin="round"/>
<path d="M76.9198 61.7635C76.9198 61.7635 75.7539 60.0174 72.0653 61.96C68.3768 63.9026 68.7692 72.066 69.156 73.8177C69.5428 75.5693 67.2164 76.3441 65.2769 79.8475C63.3373 83.3509 67.4126 90.7339 67.2164 93.2604C67.0202 95.7869 62.5581 99.8685 62.7319 104.338C62.9057 108.807 73.6013 113.882 81.9425 112.894C90.2838 111.906 92.4251 108.812 92.5933 103.95C92.7615 99.0881 90.2613 96.5616 90.2613 93.6478C90.2613 90.7339 93.5631 88.2018 91.8141 83.3453C90.0651 78.4888 87.5426 77.7309 87.5426 75.5693C87.5426 73.4078 90.8443 71.8751 89.6784 67.9899C88.5124 64.1047 82.5479 57.8783 76.9198 61.7635Z" fill="#263238" stroke="#263238" stroke-linecap="round" stroke-linejoin="round"/>
<path d="M76.0965 81.553C76.0965 81.553 71.5054 82.8275 68.9604 83.2373C66.4154 83.6472 63.8648 84.13 63.9881 86.1736C64.1115 88.2173 68.0691 105.184 68.3213 106.206C68.5736 107.228 63.3659 119.445 63.3659 119.445C63.3659 119.445 64.487 120.467 72.2846 122.252C80.0821 124.037 89.993 120.467 89.993 120.467C89.993 120.467 85.6598 108.216 85.6598 106.431C85.6598 104.645 92.0279 86.5274 90.7554 84.6128C89.4829 82.6983 79.6617 81.6765 76.0965 81.553Z" fill="white" stroke="#263238" stroke-linecap="round" stroke-linejoin="round"/>
<path d="M85.8182 100.397L73.6371 108.375" stroke="#263238" stroke-linecap="round" stroke-linejoin="round"/>
<path d="M77.8489 104.15L69.8832 108.608" stroke="#263238" stroke-linecap="round" stroke-linejoin="round"/>
<path d="M76.2079 89.8407L76.6788 121.512" stroke="#263238" stroke-linecap="round" stroke-linejoin="round"/>
<path d="M90.6129 84.1029C90.6129 84.1029 91.6331 85.6356 91.891 92.0137C92.1488 98.3917 98.388 126.722 98.388 126.722L95.7085 127.104C95.7085 127.104 92.1432 118.3 89.9794 113.45C88.5195 109.992 87.3713 106.411 86.5488 102.748L87.995 92.9344" fill="white"/>
<path d="M90.6129 84.1029C90.6129 84.1029 91.6331 85.6356 91.891 92.0137C92.1488 98.3917 98.388 126.722 98.388 126.722L95.7085 127.104C95.7085 127.104 92.1432 118.3 89.9794 113.45C88.5195 109.992 87.3713 106.411 86.5488 102.748L87.995 92.9344" stroke="#263238" stroke-linecap="round" stroke-linejoin="round"/>
<path d="M92.6135 101.805C91.7064 103.588 90.6879 105.311 89.564 106.965" stroke="#263238" stroke-linecap="round" stroke-linejoin="round"/>
<path d="M76.0945 81.552C76.0945 81.552 73.2132 80.8614 72.406 82.4671C71.5987 84.0728 70.8027 90.1926 70.8027 90.1926C70.8027 90.1926 75.7806 88.2612 76.9073 88.2612C78.034 88.2612 83.337 91.1807 83.337 91.1807C83.337 91.1807 82.6923 83.9381 81.4087 82.0067C80.125 80.0754 76.0945 81.552 76.0945 81.552Z" fill="white" stroke="#263238" stroke-linecap="round" stroke-linejoin="round"/>
<path d="M74.183 79.2549C74.183 79.2549 74.6932 84.2293 74.9454 85.8855C75.1977 87.5418 76.2627 95.0202 78.1294 85.8855C78.5453 83.5251 78.8 81.1391 78.8918 78.744C78.8918 78.744 75.9656 79.8893 74.183 79.2549Z" fill="white" stroke="#263238" stroke-linecap="round" stroke-linejoin="round"/>
<path d="M76.7307 64.9626L71.7752 72.4916C71.7752 72.4916 71.5174 80.2732 75.4694 81.2951C79.4214 82.3169 82.1962 74.6588 82.1962 74.6588C82.1962 74.6588 75.5871 68.2808 76.7307 64.9626Z" fill="white" stroke="#263238" stroke-linecap="round" stroke-linejoin="round"/>
<path d="M65.7754 94.5512L59.0206 100.677L64.3516 115.836L62.7147 117.262C62.7147 117.262 51.5707 102.249 51.6323 100.418C51.694 98.588 64.5253 84.4677 64.5253 84.4677C64.718 84.359 64.9313 84.2919 65.1514 84.2707C65.3715 84.2494 65.5936 84.2744 65.8034 84.3442" fill="white"/>
<path d="M65.7754 94.5512L59.0206 100.677L64.3516 115.836L62.7147 117.262C62.7147 117.262 51.5707 102.249 51.6323 100.418C51.694 98.588 64.5253 84.4677 64.5253 84.4677C64.718 84.359 64.9313 84.2919 65.1514 84.2707C65.3715 84.2494 65.5936 84.2744 65.8034 84.3442" stroke="#263238" stroke-linecap="round" stroke-linejoin="round"/>
<path d="M59.0196 100.701C59.0196 100.701 56.0598 98.5181 54.8882 98.5181" stroke="#263238" stroke-linecap="round" stroke-linejoin="round"/>
<path d="M95.7096 127.116C95.7096 127.116 94.4371 129.67 94.4371 131.456C94.4371 133.241 94.4371 134.605 95.2051 134.005C95.973 133.404 95.4573 131.708 95.8385 131.456C96.2197 131.203 96.6065 133.241 96.0964 134.516C95.5862 135.79 96.4776 136.2 97.2175 134.645C97.9575 133.09 98.6189 130.052 98.3386 126.734L95.7096 127.116Z" fill="white" stroke="#263238" stroke-linecap="round" stroke-linejoin="round"/>
<path d="M64.3525 115.854C64.3525 115.854 65.6979 113.479 66.4603 113.737C67.2226 113.995 69.3416 115.983 69.3416 116.516C69.3416 117.05 66.4603 115.27 66.4603 115.27C66.4603 115.27 69.3416 116.898 68.5792 117.409C67.8168 117.92 65.5633 116.213 65.5633 116.213C65.5633 116.213 68.0691 118.554 67.3011 118.431C66.5331 118.307 64.8851 117.151 64.8851 117.151C64.8851 117.151 66.791 118.942 65.8997 118.835C65.2469 118.677 64.6593 118.32 64.218 117.813C64.218 117.813 63.3771 119.161 62.6876 117.302L64.3525 115.854Z" fill="white" stroke="#263238" stroke-linecap="round" stroke-linejoin="round"/>
<path d="M44.0539 62.1302L42.3722 63.3429C42.0717 62.9333 41.637 62.6426 41.1441 62.5215C40.6512 62.4004 40.1315 62.4566 39.6759 62.6804C37.9942 63.4496 34.1207 67.419 32.9491 71.0516C31.7775 74.6841 35.5893 78.822 34.8718 80.3659C34.1543 81.9099 32.125 82.3478 32.2876 84.9361C32.4502 87.5244 41.6378 90.9941 46.0383 88.956C50.4387 86.918 46.2064 82.1794 47.193 80.641C48.1796 79.1027 51.0441 79.5181 51.0441 74.9648C51.0441 70.4115 50.1696 68.0759 48.516 65.2687C47.1089 62.8432 45.6515 61.58 44.0539 62.1302Z" fill="#263238" stroke="#263238" stroke-linecap="round" stroke-linejoin="round"/>
<path d="M49.0503 187.668C48.7745 189.116 48.4 190.544 47.9292 191.94C47.3686 193.305 45.3001 193.849 46.298 194.669C47.2958 195.489 49.3811 195.399 50.6536 194.108C51.9261 192.816 51.7411 191.014 52.7389 190.11C53.7367 189.206 53.647 188.201 53.0136 187.106C52.7375 186.525 52.2503 186.071 51.6514 185.838C51.6514 185.838 51.315 187.398 49.0503 187.668Z" fill="white" stroke="#263238" stroke-linecap="round" stroke-linejoin="round"/>
<path d="M30.1424 109.145C30.1424 109.145 28.556 116.641 29.1222 122.44C29.5025 126.837 30.1842 131.202 31.1626 135.505C31.7232 137.549 35.9275 156.868 36.2694 157.093C36.6114 157.317 43.5568 173.459 45.0031 177.434C46.4494 181.409 48.9775 187.54 48.9775 187.54C48.9775 187.54 50.5247 188.286 51.5449 187.377C52.5652 186.467 52.1952 186.22 52.1952 186.22C52.1952 186.22 49.8857 166.182 48.0694 160.501C46.2532 154.819 43.4167 148.452 43.4167 148.452C43.4167 148.452 48.8654 127.319 47.6153 119.021C46.3653 110.723 44.7789 109.707 44.7789 109.707C44.7789 109.707 35.4734 113.075 30.1424 109.145Z" fill="#263238" stroke="#263238" stroke-linecap="round" stroke-linejoin="round"/>
<path d="M45.4927 110.831C48.9309 115.506 51.1069 120.99 51.8104 126.753C52.8306 136.068 47.3818 142.204 46.2495 148.116C45.1171 154.028 47.7238 159.02 46.0253 165.156C44.3267 171.293 42.6226 177.295 41.5015 180.703C40.3803 184.111 39.0518 188.501 39.0518 188.501C38.4395 188.978 37.6735 189.214 36.8992 189.163C35.4249 189.163 35.2175 189.163 35.2175 189.163C35.2175 189.163 37.7344 164.028 37.8465 158.346C37.9587 152.664 38.6426 146.527 38.6426 146.527C38.6426 146.527 37.8465 125.507 39.5507 121.532C41.2548 117.557 42.3872 116.417 42.3872 116.417" fill="#263238"/>
<path d="M45.4927 110.831C48.9309 115.506 51.1069 120.99 51.8104 126.753C52.8306 136.068 47.3818 142.204 46.2495 148.116C45.1171 154.028 47.7238 159.02 46.0253 165.156C44.3267 171.293 42.6226 177.295 41.5015 180.703C40.3803 184.111 39.0518 188.501 39.0518 188.501C38.4395 188.978 37.6735 189.214 36.8992 189.163C35.4249 189.163 35.2175 189.163 35.2175 189.163C35.2175 189.163 37.7344 164.028 37.8465 158.346C37.9587 152.664 38.6426 146.527 38.6426 146.527C38.6426 146.527 37.8465 125.507 39.5507 121.532C41.2548 117.557 42.3872 116.417 42.3872 116.417" stroke="#263238" stroke-linecap="round" stroke-linejoin="round"/>
<path d="M37.848 154.345C37.848 151.004 37.8872 146.215 38.0217 142.633C38.2572 136.53 38.7281 121.983 42.0074 117.997" stroke="white" stroke-linecap="round" stroke-linejoin="round"/>
<path d="M37.8571 158.327C37.8571 158.327 37.8571 157.695 37.8571 156.635" stroke="white" stroke-linecap="round" stroke-linejoin="round"/>
<path d="M32.637 118.934C32.637 118.934 35.081 125.279 39.0387 126.823" stroke="white" stroke-linecap="round" stroke-linejoin="round"/>
<path d="M31.1612 84.0042C30.3428 83.8996 29.5127 84.065 28.7965 84.4753C28.0804 84.8856 27.5172 85.5185 27.1924 86.2781C25.9423 89.0011 20.6506 99.7527 20.6506 101.095C20.6506 102.436 22.1361 106.181 24.5745 104.115C26.0152 102.902 30.1354 94.2281 30.1354 94.2281" fill="#92E3A9"/>
<path d="M31.1612 84.0042C30.3428 83.8996 29.5127 84.065 28.7965 84.4753C28.0804 84.8856 27.5172 85.5185 27.1924 86.2781C25.9423 89.0011 20.6506 99.7527 20.6506 101.095C20.6506 102.436 22.1361 106.181 24.5745 104.115C26.0152 102.902 30.1354 94.2281 30.1354 94.2281" stroke="#263238" stroke-linecap="round" stroke-linejoin="round"/>
<path d="M49.9952 87.0895C48.947 83.8387 42.5677 83.6702 42.0744 83.5636C42.0744 83.5636 41.8558 83.8948 41.8558 83.1762C41.8558 82.4575 42.237 79.7626 42.237 79.7626C42.237 79.7626 37.8926 79.7626 37.1919 78.2186C37.1919 78.2186 37.0797 81.9635 36.5864 83.3951C35.8605 83.786 35.0363 83.9558 34.2152 83.8836C32.5672 83.8836 29.8428 83.2211 29.0188 85.4781C28.9653 85.6322 28.9222 85.7898 28.8898 85.9497C28.4862 87.4488 27.2586 92.1256 27.1128 94.1468C27.0175 95.4999 27.7799 98.1443 28.475 100.222C28.5255 101.721 28.5983 102.995 28.6824 103.826C29.0692 107.515 28.845 112.281 30.0558 113.056C31.2667 113.831 40.3591 115.134 43.218 113.921C46.0769 112.708 45.9031 109.334 45.9031 107.745C45.9031 106.156 51.0323 90.3402 49.9952 87.0895Z" fill="#92E3A9" stroke="#263238" stroke-linecap="round" stroke-linejoin="round"/>
<path d="M34.2789 94.7637C34.2789 94.7637 34.9796 97.818 38.7298 99.4574" stroke="#263238" stroke-linecap="round" stroke-linejoin="round"/>
<path d="M45.8528 84.1526C44.6084 83.8751 43.3458 83.6875 42.0746 83.5912C42.0746 83.5912 41.8559 83.9224 41.8559 83.2038C41.8559 82.4851 42.2371 79.7902 42.2371 79.7902C42.2371 79.7902 37.8927 79.7902 37.192 78.2462C37.192 78.2462 37.0799 81.991 36.5866 83.4227C36.5866 83.4227 34.989 83.7371 33.4755 83.9112C33.7389 85.4776 34.7255 88.7621 38.4028 89.1607C41.6037 89.4976 44.3561 86.3254 45.8528 84.1526Z" fill="white" stroke="#263238" stroke-linecap="round" stroke-linejoin="round"/>
<path d="M42.7864 66.6489C42.7864 66.6489 40.0396 69.4561 36.7939 69.793C36.7939 69.793 35.4709 74.6944 36.6257 78.0013C37.7805 81.3082 39.8209 81.8022 41.413 81.3699C44.1261 80.6232 46.2563 75.093 46.8561 72.9988C46.8561 72.9876 43.7449 69.7369 42.7864 66.6489Z" fill="white" stroke="#263238" stroke-linecap="round" stroke-linejoin="round"/>
<path d="M35.2275 189.137C35.2275 189.137 33.3215 193.685 32.6881 195.043C32.0547 196.402 29.7844 197.048 30.6925 197.851C31.6006 198.653 35.5021 197.581 37.1334 196.307C38.7646 195.032 39.4934 194.673 39.7681 193.398C40.0427 192.124 39.0393 188.491 39.0393 188.491C37.8274 188.97 36.5291 189.19 35.2275 189.137V189.137Z" fill="white" stroke="#263238" stroke-linecap="round" stroke-linejoin="round"/>
<path d="M32.0341 100.799C32.0341 100.799 29.1864 97.5316 29.007 97.2228C28.8276 96.914 24.259 95.4431 24.259 95.4431C24.1581 95.7282 24.1581 96.0394 24.259 96.3245C24.4384 96.6333 27.3702 97.4081 27.3702 97.4081L27.6336 97.7955L23.5975 97.2341C23.5975 97.2341 22.8856 97.3576 23.0762 97.8236C23.2668 98.2896 27.5607 98.9071 27.5607 98.9071L23.1715 99.1037C23.2293 99.3176 23.3491 99.5095 23.5157 99.6554C23.6823 99.8013 23.8882 99.8945 24.1076 99.9234C24.8252 99.957 26.5797 99.8504 26.5797 99.8504C26.5797 99.8504 24.5169 100.137 24.9541 100.67C25.3913 101.203 27.5888 100.586 27.5888 100.586L29.3378 101.675L31.0979 102.927L32.0341 100.799Z" fill="white" stroke="#263238" stroke-linecap="round" stroke-linejoin="round"/>
<path d="M46.5487 90.7382L43.6113 102.927C43.6113 102.927 35.8475 102.018 34.1714 101.523C33.5241 101.371 32.8919 101.161 32.2823 100.895L31.0546 102.972C31.0546 102.972 36.4585 106.245 40.7973 107.716C45.1361 109.187 46.6664 110.377 47.7876 108.485C48.9087 106.593 50.8651 95.1118 51.4256 91.2603C51.9862 87.4088 51.3528 86.1456 50.0971 85.6459C49.1641 85.3077 48.2039 85.0503 47.227 84.8767" fill="#92E3A9"/>
<path d="M46.5487 90.7382L43.6113 102.927C43.6113 102.927 35.8475 102.018 34.1714 101.523C33.5241 101.371 32.8919 101.161 32.2823 100.895L31.0546 102.972C31.0546 102.972 36.4585 106.245 40.7973 107.716C45.1361 109.187 46.6664 110.377 47.7876 108.485C48.9087 106.593 50.8651 95.1118 51.4256 91.2603C51.9862 87.4088 51.3528 86.1456 50.0971 85.6459C49.1641 85.3077 48.2039 85.0503 47.227 84.8767" stroke="#263238" stroke-linecap="round" stroke-linejoin="round"/>
<path d="M22.6379 99.4692L39.1074 101.715L38.5468 103.843C34.5081 104.785 30.4012 105.404 26.2647 105.696C19.1511 106.01 20.0985 101.204 21.3374 99.0481" fill="#92E3A9"/>
<path d="M22.6379 99.4692L39.1074 101.715L38.5468 103.843C34.5081 104.785 30.4012 105.404 26.2647 105.696C19.1511 106.01 20.0985 101.204 21.3374 99.0481" stroke="#263238" stroke-linecap="round" stroke-linejoin="round"/>
<path d="M39.1064 101.732C39.1064 101.732 43.3667 100.75 43.6974 100.609C44.0282 100.469 48.5351 102.142 48.5351 102.142C48.5351 102.142 48.3445 102.703 48.0082 102.849C47.6719 102.995 44.897 101.788 44.897 101.788L44.4486 101.929L47.9633 103.989C47.9633 103.989 48.4454 104.551 48.0082 104.775C47.571 105 43.8264 102.866 43.8264 102.866L47.1898 105.735C47.0123 105.869 46.7993 105.946 46.5777 105.958C46.3562 105.97 46.1361 105.916 45.9453 105.803C45.3567 105.387 44.045 104.219 44.045 104.219C44.045 104.219 45.4912 105.718 44.8186 105.87C44.1459 106.022 42.8005 104.186 42.8005 104.186L40.7488 103.967L38.5963 103.866L39.1064 101.732Z" fill="white" stroke="#263238" stroke-linecap="round" stroke-linejoin="round"/>
</svg>
