<svg width="48" height="57" viewBox="0 0 48 57" fill="none" xmlns="http://www.w3.org/2000/svg">
<path d="M48 6.55663V50.4142C48 53.8745 45.6122 56.6796 42.6667 56.6796H32.6667C31.9303 56.6796 31.3333 55.9783 31.3333 55.1133V36.3171H37.5733C38.207 36.3173 38.7533 35.7935 38.88 35.0641L39.84 29.4252C39.8796 29.1975 39.831 28.9608 39.7074 28.7792C39.5838 28.5977 39.3979 28.49 39.2 28.4854H31.3333V18.3042C31.3333 17.8717 31.6318 17.521 32 17.521H38.6667C39.403 17.521 40 16.8198 40 15.9547V11.2557C40 10.3906 39.403 9.68932 38.6667 9.68932H32C27.5817 9.68932 24 13.897 24 19.0874V28.4854H20.72C19.9836 28.4854 19.3867 29.1867 19.3867 30.0518V34.7508C19.3867 35.6159 19.9836 36.3171 20.72 36.3171H24V55.1133C24 55.9783 23.403 56.6796 22.6667 56.6796H5.33333C2.38781 56.6796 0 53.8745 0 50.4142V6.55663C0 3.09636 2.38781 0.29126 5.33333 0.29126H42.6667C45.6122 0.29126 48 3.09636 48 6.55663Z" fill="#F7F3F3"/>
</svg>
