<svg width="245" height="202" viewBox="0 0 245 202" fill="none" xmlns="http://www.w3.org/2000/svg">
<path d="M28.1534 40.6889C18.7279 53.4429 12.6674 72.1829 17.2636 87.8787C25.1172 114.704 58.4439 116.726 81.2694 119.83C97.0004 121.972 112.642 134.419 126.096 142.143C144.026 152.443 172.87 168.692 193.55 158.14C210.692 149.399 219.908 128.252 225.167 110.71C233.41 83.2403 234.204 50.104 216.262 26.1722C191.841 -6.31448 149.118 -0.900043 113.622 4.65878C89.8641 8.38271 66.7697 12.0104 45.6476 24.6862C38.828 28.8114 32.8833 34.2493 28.1534 40.6889Z" fill="#92E3A9"/>
<path opacity="0.4" d="M28.1534 40.6889C18.7279 53.4429 12.6674 72.1829 17.2636 87.8787C25.1172 114.704 58.4439 116.726 81.2694 119.83C97.0004 121.972 112.642 134.419 126.096 142.143C144.026 152.443 172.87 168.692 193.55 158.14C210.692 149.399 219.908 128.252 225.167 110.71C233.41 83.2403 234.204 50.104 216.262 26.1722C191.841 -6.31448 149.118 -0.900043 113.622 4.65878C89.8641 8.38271 66.7697 12.0104 45.6476 24.6862C38.828 28.8114 32.8833 34.2493 28.1534 40.6889Z" fill="white"/>
<path d="M0.624146 193.953C0.624146 196.095 55.1985 197.834 122.551 197.834C189.904 197.834 244.479 196.095 244.479 193.953C244.479 191.812 189.904 190.073 122.581 190.073C55.2583 190.073 0.624146 191.812 0.624146 193.953Z" fill="#92E3A9"/>
<path opacity="0.6" d="M0.624146 193.953C0.624146 196.095 55.1985 197.834 122.551 197.834C189.904 197.834 244.479 196.095 244.479 193.953C244.479 191.812 189.904 190.073 122.581 190.073C55.2583 190.073 0.624146 191.812 0.624146 193.953Z" fill="white"/>
<path d="M136.31 1.74701H28.0398V139.984H136.31V1.74701Z" fill="white" stroke="#263238" stroke-width="0.75" stroke-linecap="round" stroke-linejoin="round"/>
<path d="M136.31 1.74701H28.0398V9.99501H136.31V1.74701Z" fill="#263238" stroke="#263238" stroke-width="0.75" stroke-linecap="round" stroke-linejoin="round"/>
<path d="M49.4249 98.1602H31.1239V137.258H49.4249V98.1602Z" fill="#92E3A9"/>
<path opacity="0.6" d="M49.4249 98.1602H31.1239V137.258H49.4249V98.1602Z" fill="white"/>
<path d="M69.3815 98.1602H51.0805V137.258H69.3815V98.1602Z" fill="#92E3A9"/>
<path opacity="0.6" d="M69.3815 98.1602H51.0805V137.258H69.3815V98.1602Z" fill="white"/>
<path d="M90.5873 98.1602H72.2863V137.258H90.5873V98.1602Z" fill="#92E3A9"/>
<path opacity="0.6" d="M90.5873 98.1602H72.2863V137.258H90.5873V98.1602Z" fill="white"/>
<path d="M111.787 98.1602H93.4861V137.258H111.787V98.1602Z" fill="#92E3A9"/>
<path opacity="0.6" d="M111.787 98.1602H93.4861V137.258H111.787V98.1602Z" fill="white"/>
<path d="M133.507 98.1602H115.206V137.258H133.507V98.1602Z" fill="white" stroke="#263238" stroke-width="0.75" stroke-linecap="round" stroke-linejoin="round"/>
<path d="M133.214 5.00769H31.1298V14.483H133.214V5.00769Z" fill="#92E3A9"/>
<path opacity="0.6" d="M133.214 5.00769H31.1298V14.483H133.214V5.00769Z" fill="white"/>
<path d="M131.78 6.84857H32.9647V11.0418H131.78V6.84857Z" fill="white"/>
<path d="M131.774 6.84857H120.585V11.0418H131.774V6.84857Z" fill="#263238" stroke="#263238" stroke-width="0.75" stroke-linecap="round" stroke-linejoin="round"/>
<path d="M76.5657 22.9853H55.6468C55.4328 22.9853 55.2276 22.8993 55.0762 22.7463C54.9249 22.5933 54.8399 22.3857 54.8399 22.1693C54.8399 21.9529 54.9249 21.7454 55.0762 21.5923C55.2276 21.4393 55.4328 21.3533 55.6468 21.3533H76.5657C76.7797 21.3533 76.9849 21.4393 77.1362 21.5923C77.2875 21.7454 77.3725 21.9529 77.3725 22.1693C77.3725 22.3857 77.2875 22.5933 77.1362 22.7463C76.9849 22.8993 76.7797 22.9853 76.5657 22.9853Z" fill="#263238"/>
<path d="M76.5657 28.6464H55.6468C55.5354 28.6561 55.4232 28.6423 55.3174 28.6059C55.2115 28.5695 55.1143 28.5112 55.0319 28.4347C54.9495 28.3583 54.8838 28.2654 54.8388 28.1619C54.7938 28.0583 54.7705 27.9465 54.7705 27.8334C54.7705 27.7204 54.7938 27.6085 54.8388 27.505C54.8838 27.4015 54.9495 27.3086 55.0319 27.2322C55.1143 27.1557 55.2115 27.0974 55.3174 27.061C55.4232 27.0245 55.5354 27.0108 55.6468 27.0205H76.5657C76.7669 27.038 76.9543 27.1313 77.0909 27.2818C77.2274 27.4323 77.3032 27.6292 77.3032 27.8334C77.3032 28.0377 77.2274 28.2346 77.0909 28.3851C76.9543 28.5356 76.7669 28.6289 76.5657 28.6464Z" fill="#263238"/>
<path d="M76.5657 34.3135H55.6468C55.4328 34.3135 55.2276 34.2275 55.0762 34.0745C54.9249 33.9215 54.8399 33.7139 54.8399 33.4975C54.8399 33.2811 54.9249 33.0735 55.0762 32.9205C55.2276 32.7675 55.4328 32.6815 55.6468 32.6815H76.5657C76.7797 32.6815 76.9849 32.7675 77.1362 32.9205C77.2875 33.0735 77.3725 33.2811 77.3725 33.4975C77.3725 33.7139 77.2875 33.9215 77.1362 34.0745C76.9849 34.2275 76.7797 34.3135 76.5657 34.3135Z" fill="#263238"/>
<path d="M76.5657 39.9746H33.15C32.9488 39.957 32.7614 39.8637 32.6248 39.7132C32.4883 39.5627 32.4125 39.3659 32.4125 39.1616C32.4125 38.9573 32.4883 38.7605 32.6248 38.61C32.7614 38.4594 32.9488 38.3662 33.15 38.3486H76.5657C76.7669 38.3662 76.9543 38.4594 77.0909 38.61C77.2274 38.7605 77.3032 38.9573 77.3032 39.1616C77.3032 39.3659 77.2274 39.5627 77.0909 39.7132C76.9543 39.8637 76.7669 39.957 76.5657 39.9746Z" fill="#263238"/>
<path d="M76.5657 45.6418H33.15C32.936 45.6418 32.7308 45.5558 32.5795 45.4027C32.4282 45.2497 32.3431 45.0422 32.3431 44.8258C32.3431 44.6093 32.4282 44.4018 32.5795 44.2488C32.7308 44.0957 32.936 44.0098 33.15 44.0098H76.5657C76.7797 44.0098 76.9849 44.0957 77.1362 44.2488C77.2875 44.4018 77.3725 44.6093 77.3725 44.8258C77.3725 45.0422 77.2875 45.2497 77.1362 45.4027C76.9849 45.5558 76.7797 45.6418 76.5657 45.6418Z" fill="#263238"/>
<path d="M76.5657 51.3089H33.15C32.936 51.3089 32.7308 51.2229 32.5795 51.0699C32.4282 50.9168 32.3431 50.7093 32.3431 50.4929C32.3431 50.2765 32.4282 50.0689 32.5795 49.9159C32.7308 49.7628 32.936 49.6769 33.15 49.6769H76.5657C76.7797 49.6769 76.9849 49.7628 77.1362 49.9159C77.2875 50.0689 77.3725 50.2765 77.3725 50.4929C77.3725 50.7093 77.2875 50.9168 77.1362 51.0699C76.9849 51.2229 76.7797 51.3089 76.5657 51.3089Z" fill="#263238"/>
<path d="M76.5657 56.9699H33.15C32.9488 56.9524 32.7614 56.8591 32.6248 56.7086C32.4883 56.5581 32.4125 56.3612 32.4125 56.157C32.4125 55.9527 32.4883 55.7558 32.6248 55.6053C32.7614 55.4548 32.9488 55.3616 33.15 55.344H76.5657C76.7669 55.3616 76.9543 55.4548 77.0909 55.6053C77.2274 55.7558 77.3032 55.9527 77.3032 56.157C77.3032 56.3612 77.2274 56.5581 77.0909 56.7086C76.9543 56.8591 76.7669 56.9524 76.5657 56.9699Z" fill="#263238"/>
<path d="M76.5657 62.0054H33.15C32.9488 61.9878 32.7614 61.8946 32.6248 61.744C32.4883 61.5935 32.4125 61.3967 32.4125 61.1924C32.4125 60.9882 32.4883 60.7913 32.6248 60.6408C32.7614 60.4903 32.9488 60.397 33.15 60.3795H76.5657C76.7669 60.397 76.9543 60.4903 77.0909 60.6408C77.2274 60.7913 77.3032 60.9882 77.3032 61.1924C77.3032 61.3967 77.2274 61.5935 77.0909 61.744C76.9543 61.8946 76.7669 61.9878 76.5657 62.0054Z" fill="#263238"/>
<path d="M76.5657 67.6905H33.15C32.936 67.6905 32.7308 67.6045 32.5795 67.4515C32.4282 67.2985 32.3431 67.0909 32.3431 66.8745C32.3431 66.6581 32.4282 66.4506 32.5795 66.2975C32.7308 66.1445 32.936 66.0585 33.15 66.0585H76.5657C76.7797 66.0585 76.9849 66.1445 77.1362 66.2975C77.2875 66.4506 77.3725 66.6581 77.3725 66.8745C77.3725 67.0909 77.2875 67.2985 77.1362 67.4515C76.9849 67.6045 76.7797 67.6905 76.5657 67.6905Z" fill="#263238"/>
<path d="M76.5657 73.3336H33.15C32.9488 73.3161 32.7614 73.2228 32.6248 73.0723C32.4883 72.9218 32.4125 72.7249 32.4125 72.5207C32.4125 72.3164 32.4883 72.1196 32.6248 71.969C32.7614 71.8185 32.9488 71.7253 33.15 71.7077H76.5657C76.7669 71.7253 76.9543 71.8185 77.0909 71.969C77.2274 72.1196 77.3032 72.3164 77.3032 72.5207C77.3032 72.7249 77.2274 72.9218 77.0909 73.0723C76.9543 73.2228 76.7669 73.3161 76.5657 73.3336Z" fill="#263238"/>
<path d="M76.5657 79.0008H33.15C32.936 79.0008 32.7308 78.9148 32.5795 78.7617C32.4282 78.6087 32.3431 78.4012 32.3431 78.1848C32.3431 77.9683 32.4282 77.7608 32.5795 77.6078C32.7308 77.4547 32.936 77.3688 33.15 77.3688H76.5657C76.7797 77.3688 76.9849 77.4547 77.1362 77.6078C77.2875 77.7608 77.3725 77.9683 77.3725 78.1848C77.3725 78.4012 77.2875 78.6087 77.1362 78.7617C76.9849 78.9148 76.7797 79.0008 76.5657 79.0008Z" fill="#263238"/>
<path d="M76.5657 84.6618H33.15C32.9488 84.6442 32.7614 84.5509 32.6248 84.4004C32.4883 84.2499 32.4125 84.0531 32.4125 83.8488C32.4125 83.6445 32.4883 83.4477 32.6248 83.2972C32.7614 83.1466 32.9488 83.0534 33.15 83.0358H76.5657C76.7669 83.0534 76.9543 83.1466 77.0909 83.2972C77.2274 83.4477 77.3032 83.6445 77.3032 83.8488C77.3032 84.0531 77.2274 84.2499 77.0909 84.4004C76.9543 84.5509 76.7669 84.6442 76.5657 84.6618Z" fill="#263238"/>
<path d="M76.5657 90.3289H33.15C32.9488 90.3114 32.7614 90.2181 32.6248 90.0676C32.4883 89.9171 32.4125 89.7202 32.4125 89.516C32.4125 89.3117 32.4883 89.1149 32.6248 88.9643C32.7614 88.8138 32.9488 88.7206 33.15 88.703H76.5657C76.7669 88.7206 76.9543 88.8138 77.0909 88.9643C77.2274 89.1149 77.3032 89.3117 77.3032 89.516C77.3032 89.7202 77.2274 89.9171 77.0909 90.0676C76.9543 90.2181 76.7669 90.3114 76.5657 90.3289Z" fill="#263238"/>
<path d="M132.449 22.9853H89.0513C88.8373 22.9853 88.632 22.8993 88.4807 22.7463C88.3294 22.5933 88.2444 22.3857 88.2444 22.1693C88.2444 21.9529 88.3294 21.7454 88.4807 21.5923C88.632 21.4393 88.8373 21.3533 89.0513 21.3533H132.449C132.663 21.3533 132.868 21.4393 133.02 21.5923C133.171 21.7454 133.256 21.9529 133.256 22.1693C133.256 22.3857 133.171 22.5933 133.02 22.7463C132.868 22.8993 132.663 22.9853 132.449 22.9853Z" fill="#263238"/>
<path d="M132.449 28.6464H89.0513C88.9399 28.6561 88.8277 28.6423 88.7218 28.6059C88.616 28.5695 88.5188 28.5112 88.4364 28.4347C88.354 28.3583 88.2882 28.2654 88.2432 28.1619C88.1982 28.0583 88.175 27.9465 88.175 27.8334C88.175 27.7204 88.1982 27.6085 88.2432 27.505C88.2882 27.4015 88.354 27.3086 88.4364 27.2322C88.5188 27.1557 88.616 27.0974 88.7218 27.061C88.8277 27.0245 88.9399 27.0108 89.0513 27.0205H132.449C132.56 27.0108 132.673 27.0245 132.778 27.061C132.884 27.0974 132.981 27.1557 133.064 27.2322C133.146 27.3086 133.212 27.4015 133.257 27.505C133.302 27.6085 133.325 27.7204 133.325 27.8334C133.325 27.9465 133.302 28.0583 133.257 28.1619C133.212 28.2654 133.146 28.3583 133.064 28.4347C132.981 28.5112 132.884 28.5695 132.778 28.6059C132.673 28.6423 132.56 28.6561 132.449 28.6464Z" fill="#263238"/>
<path d="M132.449 34.3135H89.0513C88.8373 34.3135 88.632 34.2275 88.4807 34.0745C88.3294 33.9215 88.2444 33.7139 88.2444 33.4975C88.2444 33.2811 88.3294 33.0735 88.4807 32.9205C88.632 32.7675 88.8373 32.6815 89.0513 32.6815H132.449C132.663 32.6815 132.868 32.7675 133.02 32.9205C133.171 33.0735 133.256 33.2811 133.256 33.4975C133.256 33.7139 133.171 33.9215 133.02 34.0745C132.868 34.2275 132.663 34.3135 132.449 34.3135Z" fill="#263238"/>
<path d="M132.449 39.9746H89.0513C88.9399 39.9843 88.8277 39.9705 88.7218 39.9341C88.616 39.8976 88.5188 39.8394 88.4364 39.7629C88.354 39.6865 88.2882 39.5936 88.2432 39.49C88.1982 39.3865 88.175 39.2747 88.175 39.1616C88.175 39.0486 88.1982 38.9367 88.2432 38.8332C88.2882 38.7297 88.354 38.6368 88.4364 38.5603C88.5188 38.4839 88.616 38.4256 88.7218 38.3892C88.8277 38.3527 88.9399 38.3389 89.0513 38.3487H132.449C132.56 38.3389 132.673 38.3527 132.778 38.3892C132.884 38.4256 132.981 38.4839 133.064 38.5603C133.146 38.6368 133.212 38.7297 133.257 38.8332C133.302 38.9367 133.325 39.0486 133.325 39.1616C133.325 39.2747 133.302 39.3865 133.257 39.49C133.212 39.5936 133.146 39.6865 133.064 39.7629C132.981 39.8394 132.884 39.8976 132.778 39.9341C132.673 39.9705 132.56 39.9843 132.449 39.9746Z" fill="#263238"/>
<path d="M132.449 45.6418H89.0513C88.8373 45.6418 88.632 45.5558 88.4807 45.4027C88.3294 45.2497 88.2444 45.0422 88.2444 44.8258C88.2444 44.6093 88.3294 44.4018 88.4807 44.2488C88.632 44.0957 88.8373 44.0098 89.0513 44.0098H132.449C132.663 44.0098 132.868 44.0957 133.02 44.2488C133.171 44.4018 133.256 44.6093 133.256 44.8258C133.256 45.0422 133.171 45.2497 133.02 45.4027C132.868 45.5558 132.663 45.6418 132.449 45.6418Z" fill="#263238"/>
<path d="M132.449 51.3089H89.0513C88.9453 51.3089 88.8404 51.2877 88.7425 51.2467C88.6446 51.2057 88.5556 51.1456 88.4807 51.0699C88.4058 50.9941 88.3464 50.9041 88.3058 50.8051C88.2653 50.7061 88.2444 50.6 88.2444 50.4929C88.2444 50.3857 88.2653 50.2796 88.3058 50.1806C88.3464 50.0816 88.4058 49.9916 88.4807 49.9159C88.5556 49.8401 88.6446 49.78 88.7425 49.739C88.8404 49.698 88.9453 49.6769 89.0513 49.6769H132.449C132.555 49.6769 132.66 49.698 132.758 49.739C132.856 49.78 132.945 49.8401 133.02 49.9159C133.094 49.9916 133.154 50.0816 133.194 50.1806C133.235 50.2796 133.256 50.3857 133.256 50.4929C133.256 50.6 133.235 50.7061 133.194 50.8051C133.154 50.9041 133.094 50.9941 133.02 51.0699C132.945 51.1456 132.856 51.2057 132.758 51.2467C132.66 51.2877 132.555 51.3089 132.449 51.3089Z" fill="#263238"/>
<path d="M132.449 56.9699H89.0513C88.9399 56.9796 88.8277 56.9658 88.7218 56.9294C88.616 56.8929 88.5188 56.8347 88.4364 56.7582C88.354 56.6818 88.2882 56.5889 88.2432 56.4853C88.1982 56.3818 88.175 56.27 88.175 56.1569C88.175 56.0439 88.1982 55.932 88.2432 55.8285C88.2882 55.725 88.354 55.6321 88.4364 55.5556C88.5188 55.4792 88.616 55.4209 88.7218 55.3845C88.8277 55.348 88.9399 55.3342 89.0513 55.344H132.449C132.56 55.3342 132.673 55.348 132.778 55.3845C132.884 55.4209 132.981 55.4792 133.064 55.5556C133.146 55.6321 133.212 55.725 133.257 55.8285C133.302 55.932 133.325 56.0439 133.325 56.1569C133.325 56.27 133.302 56.3818 133.257 56.4853C133.212 56.5889 133.146 56.6818 133.064 56.7582C132.981 56.8347 132.884 56.8929 132.778 56.9294C132.673 56.9658 132.56 56.9796 132.449 56.9699Z" fill="#263238"/>
<path d="M133.232 60.7704H89.0034V91.8192H133.232V60.7704Z" fill="#92E3A9"/>
<path opacity="0.6" d="M133.232 60.7704H89.0034V91.8192H133.232V60.7704Z" fill="white"/>
<path d="M48.2833 24.5839C48.406 24.207 48.4705 23.8134 48.4746 23.4168C48.4746 21.9669 47.0163 21.8827 45.5758 21.8827H45.2172V21.5398H51.463V21.8827C49.8373 21.8827 49.2635 22.9235 48.7376 24.4816L45.4145 34.5044C45.1634 35.2443 44.9542 35.7978 44.1713 35.7978H44.1055L41.1709 26.2263L38.4216 34.5044C38.1646 35.2443 37.9554 35.7978 37.1724 35.7978H37.1186L32.8512 21.8827H31.351V21.5398H36.8437V21.8827H35.2837L38.4515 32.862H38.577L40.9677 25.5405L39.85 21.8827H38.3499V21.5398H43.8426V21.8827H42.2766L45.4503 32.862H45.5758L48.2833 24.5839Z" fill="#263238"/>
<path d="M148.688 17.9903H103.611V139.701H148.688V17.9903Z" fill="#92E3A9"/>
<path opacity="0.4" d="M148.688 17.9903H103.611V139.701H148.688V17.9903Z" fill="white"/>
<path d="M215.252 13.4362H106.982V151.673H215.252V13.4362Z" fill="white" stroke="#263238" stroke-width="0.75" stroke-linecap="round" stroke-linejoin="round"/>
<path d="M215.252 13.4362H106.982V21.6842H215.252V13.4362Z" fill="#263238" stroke="#263238" stroke-width="0.75" stroke-linecap="round" stroke-linejoin="round"/>
<path d="M181.471 33.0125H143.452V104.549H181.471V33.0125Z" fill="#92E3A9"/>
<path opacity="0.6" d="M181.471 33.0125H143.452V104.549H181.471V33.0125Z" fill="white"/>
<path d="M212.162 109.843H110.078V148.942H212.162V109.843Z" fill="#92E3A9"/>
<path opacity="0.6" d="M212.162 109.843H110.078V148.942H212.162V109.843Z" fill="white"/>
<path d="M212.162 16.6969H110.078V26.1722H212.162V16.6969Z" fill="#92E3A9"/>
<path opacity="0.6" d="M212.162 16.6969H110.078V26.1722H212.162V16.6969Z" fill="white"/>
<path d="M210.727 18.5378H111.913V22.731H210.727V18.5378Z" fill="white"/>
<path d="M210.721 18.5378H199.533V22.731H210.721V18.5378Z" fill="#263238" stroke="#263238" stroke-width="0.75" stroke-linecap="round" stroke-linejoin="round"/>
<path d="M137.063 34.6684H111.01C110.899 34.6782 110.787 34.6644 110.681 34.6279C110.575 34.5915 110.478 34.5332 110.395 34.4568C110.313 34.3803 110.247 34.2874 110.202 34.1839C110.157 34.0804 110.134 33.9686 110.134 33.8555C110.134 33.7424 110.157 33.6306 110.202 33.5271C110.247 33.4235 110.313 33.3306 110.395 33.2542C110.478 33.1778 110.575 33.1195 110.681 33.083C110.787 33.0466 110.899 33.0328 111.01 33.0425H137.063C137.174 33.0328 137.287 33.0466 137.392 33.083C137.498 33.1195 137.596 33.1778 137.678 33.2542C137.76 33.3306 137.826 33.4235 137.871 33.5271C137.916 33.6306 137.939 33.7424 137.939 33.8555C137.939 33.9686 137.916 34.0804 137.871 34.1839C137.826 34.2874 137.76 34.3803 137.678 34.4568C137.596 34.5332 137.498 34.5915 137.392 34.6279C137.287 34.6644 137.174 34.6782 137.063 34.6684Z" fill="#263238"/>
<path d="M137.063 40.3357H111.01C110.796 40.3357 110.591 40.2497 110.44 40.0967C110.288 39.9436 110.203 39.7361 110.203 39.5197C110.203 39.3032 110.288 39.0957 110.44 38.9427C110.591 38.7896 110.796 38.7037 111.01 38.7037H137.063C137.277 38.7037 137.482 38.7896 137.634 38.9427C137.785 39.0957 137.87 39.3032 137.87 39.5197C137.87 39.7361 137.785 39.9436 137.634 40.0967C137.482 40.2497 137.277 40.3357 137.063 40.3357Z" fill="#263238"/>
<path d="M137.063 45.9967H111.01C110.899 46.0064 110.787 45.9926 110.681 45.9562C110.575 45.9197 110.478 45.8614 110.395 45.785C110.313 45.7086 110.247 45.6157 110.202 45.5121C110.157 45.4086 110.134 45.2968 110.134 45.1837C110.134 45.0707 110.157 44.9588 110.202 44.8553C110.247 44.7518 110.313 44.6589 110.395 44.5824C110.478 44.506 110.575 44.4477 110.681 44.4113C110.787 44.3748 110.899 44.361 111.01 44.3708H137.063C137.174 44.361 137.287 44.3748 137.392 44.4113C137.498 44.4477 137.596 44.506 137.678 44.5824C137.76 44.6589 137.826 44.7518 137.871 44.8553C137.916 44.9588 137.939 45.0707 137.939 45.1837C137.939 45.2968 137.916 45.4086 137.871 45.5121C137.826 45.6157 137.76 45.7086 137.678 45.785C137.596 45.8614 137.498 45.9197 137.392 45.9562C137.287 45.9926 137.174 46.0064 137.063 45.9967Z" fill="#263238"/>
<path d="M137.063 51.6638H111.01C110.904 51.6638 110.799 51.6427 110.701 51.6017C110.603 51.5607 110.514 51.5006 110.44 51.4248C110.365 51.349 110.305 51.2591 110.265 51.1601C110.224 51.0611 110.203 50.9549 110.203 50.8478C110.203 50.7406 110.224 50.6345 110.265 50.5355C110.305 50.4365 110.365 50.3466 110.44 50.2708C110.514 50.195 110.603 50.1349 110.701 50.0939C110.799 50.0529 110.904 50.0318 111.01 50.0318H137.063C137.277 50.0318 137.482 50.1178 137.634 50.2708C137.785 50.4238 137.87 50.6314 137.87 50.8478C137.87 51.0642 137.785 51.2718 137.634 51.4248C137.482 51.5778 137.277 51.6638 137.063 51.6638Z" fill="#263238"/>
<path d="M137.063 57.3249H111.01C110.899 57.3347 110.787 57.3209 110.681 57.2844C110.575 57.248 110.478 57.1897 110.395 57.1133C110.313 57.0368 110.247 56.9439 110.202 56.8404C110.157 56.7369 110.134 56.625 110.134 56.512C110.134 56.3989 110.157 56.2871 110.202 56.1836C110.247 56.08 110.313 55.9871 110.395 55.9107C110.478 55.8342 110.575 55.776 110.681 55.7395C110.787 55.7031 110.899 55.6893 111.01 55.699H137.063C137.174 55.6893 137.287 55.7031 137.392 55.7395C137.498 55.776 137.596 55.8342 137.678 55.9107C137.76 55.9871 137.826 56.08 137.871 56.1836C137.916 56.2871 137.939 56.3989 137.939 56.512C137.939 56.625 137.916 56.7369 137.871 56.8404C137.826 56.9439 137.76 57.0368 137.678 57.1133C137.596 57.1897 137.498 57.248 137.392 57.2844C137.287 57.3209 137.174 57.3347 137.063 57.3249Z" fill="#263238"/>
<path d="M137.063 62.9919H111.01C110.899 63.0017 110.787 62.9879 110.681 62.9514C110.575 62.915 110.478 62.8567 110.395 62.7802C110.313 62.7038 110.247 62.6109 110.202 62.5074C110.157 62.4039 110.134 62.292 110.134 62.179C110.134 62.0659 110.157 61.9541 110.202 61.8505C110.247 61.747 110.313 61.6541 110.395 61.5777C110.478 61.5012 110.575 61.443 110.681 61.4065C110.787 61.3701 110.899 61.3563 111.01 61.366H137.063C137.174 61.3563 137.287 61.3701 137.392 61.4065C137.498 61.443 137.596 61.5012 137.678 61.5777C137.76 61.6541 137.826 61.747 137.871 61.8505C137.916 61.9541 137.939 62.0659 137.939 62.179C137.939 62.292 137.916 62.4039 137.871 62.5074C137.826 62.6109 137.76 62.7038 137.678 62.7802C137.596 62.8567 137.498 62.915 137.392 62.9514C137.287 62.9879 137.174 63.0017 137.063 62.9919Z" fill="#263238"/>
<path d="M137.063 68.6591H111.01C110.904 68.6591 110.799 68.638 110.701 68.597C110.603 68.556 110.514 68.4959 110.44 68.4201C110.365 68.3444 110.305 68.2544 110.265 68.1554C110.224 68.0564 110.203 67.9503 110.203 67.8431C110.203 67.736 110.224 67.6299 110.265 67.5309C110.305 67.4319 110.365 67.3419 110.44 67.2662C110.514 67.1904 110.603 67.1303 110.701 67.0893C110.799 67.0483 110.904 67.0272 111.01 67.0272H137.063C137.277 67.0272 137.482 67.1131 137.634 67.2662C137.785 67.4192 137.87 67.6267 137.87 67.8431C137.87 68.0596 137.785 68.2671 137.634 68.4201C137.482 68.5732 137.277 68.6591 137.063 68.6591Z" fill="#263238"/>
<path d="M137.063 73.7066H111.01C110.796 73.7066 110.591 73.6206 110.44 73.4676C110.288 73.3145 110.203 73.107 110.203 72.8906C110.203 72.6742 110.288 72.4666 110.44 72.3136C110.591 72.1606 110.796 72.0746 111.01 72.0746H137.063C137.277 72.0746 137.482 72.1606 137.634 72.3136C137.785 72.4666 137.87 72.6742 137.87 72.8906C137.87 73.107 137.785 73.3145 137.634 73.4676C137.482 73.6206 137.277 73.7066 137.063 73.7066Z" fill="#263238"/>
<path d="M137.063 79.3556H111.01C110.899 79.3654 110.787 79.3516 110.681 79.3151C110.575 79.2787 110.478 79.2204 110.395 79.144C110.313 79.0675 110.247 78.9746 110.202 78.8711C110.157 78.7676 110.134 78.6557 110.134 78.5427C110.134 78.4296 110.157 78.3178 110.202 78.2143C110.247 78.1107 110.313 78.0178 110.395 77.9414C110.478 77.865 110.575 77.8067 110.681 77.7702C110.787 77.7338 110.899 77.72 111.01 77.7297H137.063C137.174 77.72 137.287 77.7338 137.392 77.7702C137.498 77.8067 137.596 77.865 137.678 77.9414C137.76 78.0178 137.826 78.1107 137.871 78.2143C137.916 78.3178 137.939 78.4296 137.939 78.5427C137.939 78.6557 137.916 78.7676 137.871 78.8711C137.826 78.9746 137.76 79.0675 137.678 79.144C137.596 79.2204 137.498 79.2787 137.392 79.3151C137.287 79.3516 137.174 79.3654 137.063 79.3556Z" fill="#263238"/>
<path d="M137.063 85.0228H111.01C110.796 85.0228 110.591 84.9368 110.44 84.7838C110.288 84.6308 110.203 84.4232 110.203 84.2068C110.203 83.9904 110.288 83.7828 110.44 83.6298C110.591 83.4768 110.796 83.3908 111.01 83.3908H137.063C137.277 83.3908 137.482 83.4768 137.634 83.6298C137.785 83.7828 137.87 83.9904 137.87 84.2068C137.87 84.4232 137.785 84.6308 137.634 84.7838C137.482 84.9368 137.277 85.0228 137.063 85.0228Z" fill="#263238"/>
<path d="M137.063 90.6838H111.01C110.899 90.6936 110.787 90.6798 110.681 90.6433C110.575 90.6069 110.478 90.5486 110.395 90.4721C110.313 90.3957 110.247 90.3028 110.202 90.1993C110.157 90.0958 110.134 89.9839 110.134 89.8709C110.134 89.7578 110.157 89.6459 110.202 89.5424C110.247 89.4389 110.313 89.346 110.395 89.2696C110.478 89.1931 110.575 89.1348 110.681 89.0984C110.787 89.062 110.899 89.0482 111.01 89.0579H137.063C137.174 89.0482 137.287 89.062 137.392 89.0984C137.498 89.1348 137.596 89.1931 137.678 89.2696C137.76 89.346 137.826 89.4389 137.871 89.5424C137.916 89.6459 137.939 89.7578 137.939 89.8709C137.939 89.9839 137.916 90.0958 137.871 90.1993C137.826 90.3028 137.76 90.3957 137.678 90.4721C137.596 90.5486 137.498 90.6069 137.392 90.6433C137.287 90.6798 137.174 90.6936 137.063 90.6838Z" fill="#263238"/>
<path d="M137.063 96.351H111.01C110.796 96.351 110.591 96.265 110.44 96.112C110.288 95.9589 110.203 95.7514 110.203 95.535C110.203 95.3186 110.288 95.111 110.44 94.958C110.591 94.805 110.796 94.719 111.01 94.719H137.063C137.277 94.719 137.482 94.805 137.634 94.958C137.785 95.111 137.87 95.3186 137.87 95.535C137.87 95.7514 137.785 95.9589 137.634 96.112C137.482 96.265 137.277 96.351 137.063 96.351Z" fill="#263238"/>
<path d="M137.063 102.012H111.01C110.899 102.022 110.787 102.008 110.681 101.972C110.575 101.935 110.478 101.877 110.395 101.8C110.313 101.724 110.247 101.631 110.202 101.528C110.157 101.424 110.134 101.312 110.134 101.199C110.134 101.086 110.157 100.974 110.202 100.871C110.247 100.767 110.313 100.674 110.395 100.598C110.478 100.521 110.575 100.463 110.681 100.427C110.787 100.39 110.899 100.376 111.01 100.386H137.063C137.174 100.376 137.287 100.39 137.392 100.427C137.498 100.463 137.596 100.521 137.678 100.598C137.76 100.674 137.826 100.767 137.871 100.871C137.916 100.974 137.939 101.086 137.939 101.199C137.939 101.312 137.916 101.424 137.871 101.528C137.826 101.631 137.76 101.724 137.678 101.8C137.596 101.877 137.498 101.935 137.392 101.972C137.287 102.008 137.174 102.022 137.063 102.012Z" fill="#263238"/>
<path d="M137.063 107.679H111.01C110.899 107.689 110.787 107.675 110.681 107.639C110.575 107.602 110.478 107.544 110.395 107.468C110.313 107.391 110.247 107.298 110.202 107.195C110.157 107.091 110.134 106.979 110.134 106.866C110.134 106.753 110.157 106.641 110.202 106.538C110.247 106.434 110.313 106.341 110.395 106.265C110.478 106.189 110.575 106.13 110.681 106.094C110.787 106.057 110.899 106.044 111.01 106.053H137.063C137.174 106.044 137.287 106.057 137.392 106.094C137.498 106.13 137.596 106.189 137.678 106.265C137.76 106.341 137.826 106.434 137.871 106.538C137.916 106.641 137.939 106.753 137.939 106.866C137.939 106.979 137.916 107.091 137.871 107.195C137.826 107.298 137.76 107.391 137.678 107.468C137.596 107.544 137.498 107.602 137.392 107.639C137.287 107.675 137.174 107.689 137.063 107.679Z" fill="#263238"/>
<path d="M211.965 34.6684H185.942C185.83 34.6782 185.718 34.6644 185.612 34.6279C185.506 34.5915 185.409 34.5332 185.327 34.4568C185.244 34.3803 185.179 34.2874 185.134 34.1839C185.089 34.0804 185.065 33.9686 185.065 33.8555C185.065 33.7424 185.089 33.6306 185.134 33.5271C185.179 33.4235 185.244 33.3306 185.327 33.2542C185.409 33.1778 185.506 33.1195 185.612 33.083C185.718 33.0466 185.83 33.0328 185.942 33.0425H211.995C212.106 33.0328 212.218 33.0466 212.324 33.083C212.43 33.1195 212.527 33.1778 212.609 33.2542C212.692 33.3306 212.758 33.4235 212.803 33.5271C212.848 33.6306 212.871 33.7424 212.871 33.8555C212.871 33.9686 212.848 34.0804 212.803 34.1839C212.758 34.2874 212.692 34.3803 212.609 34.4568C212.527 34.5332 212.43 34.5915 212.324 34.6279C212.218 34.6644 212.106 34.6782 211.995 34.6684H211.965Z" fill="#263238"/>
<path d="M211.965 40.3357H185.942C185.836 40.3357 185.731 40.3145 185.633 40.2735C185.535 40.2325 185.446 40.1724 185.371 40.0967C185.296 40.0209 185.237 39.9309 185.196 39.8319C185.156 39.7329 185.135 39.6268 185.135 39.5197C185.135 39.4125 185.156 39.3064 185.196 39.2074C185.237 39.1084 185.296 39.0184 185.371 38.9427C185.446 38.8669 185.535 38.8068 185.633 38.7658C185.731 38.7248 185.836 38.7037 185.942 38.7037H211.995C212.209 38.7037 212.414 38.7896 212.565 38.9427C212.716 39.0957 212.801 39.3032 212.801 39.5197C212.801 39.7361 212.716 39.9436 212.565 40.0967C212.414 40.2497 212.209 40.3357 211.995 40.3357H211.965Z" fill="#263238"/>
<path d="M211.965 45.9967H185.942C185.83 46.0064 185.718 45.9926 185.612 45.9562C185.506 45.9197 185.409 45.8614 185.327 45.785C185.244 45.7086 185.179 45.6157 185.134 45.5121C185.089 45.4086 185.065 45.2968 185.065 45.1837C185.065 45.0707 185.089 44.9588 185.134 44.8553C185.179 44.7518 185.244 44.6589 185.327 44.5824C185.409 44.506 185.506 44.4477 185.612 44.4113C185.718 44.3748 185.83 44.361 185.942 44.3708H211.995C212.106 44.361 212.218 44.3748 212.324 44.4113C212.43 44.4477 212.527 44.506 212.609 44.5824C212.692 44.6589 212.758 44.7518 212.803 44.8553C212.848 44.9588 212.871 45.0707 212.871 45.1837C212.871 45.2968 212.848 45.4086 212.803 45.5121C212.758 45.6157 212.692 45.7086 212.609 45.785C212.527 45.8614 212.43 45.9197 212.324 45.9562C212.218 45.9926 212.106 46.0064 211.995 45.9967H211.965Z" fill="#263238"/>
<path d="M211.965 51.6638H185.942C185.836 51.6638 185.731 51.6427 185.633 51.6017C185.535 51.5607 185.446 51.5006 185.371 51.4248C185.296 51.349 185.237 51.2591 185.196 51.1601C185.156 51.0611 185.135 50.9549 185.135 50.8478C185.135 50.7406 185.156 50.6345 185.196 50.5355C185.237 50.4365 185.296 50.3466 185.371 50.2708C185.446 50.195 185.535 50.1349 185.633 50.0939C185.731 50.0529 185.836 50.0318 185.942 50.0318H211.995C212.209 50.0318 212.414 50.1178 212.565 50.2708C212.716 50.4238 212.801 50.6314 212.801 50.8478C212.801 51.0642 212.716 51.2718 212.565 51.4248C212.414 51.5778 212.209 51.6638 211.995 51.6638H211.965Z" fill="#263238"/>
<path d="M211.965 57.3249H185.942C185.83 57.3347 185.718 57.3209 185.612 57.2844C185.506 57.248 185.409 57.1897 185.327 57.1133C185.244 57.0368 185.179 56.9439 185.134 56.8404C185.089 56.7369 185.065 56.625 185.065 56.512C185.065 56.3989 185.089 56.2871 185.134 56.1836C185.179 56.08 185.244 55.9871 185.327 55.9107C185.409 55.8342 185.506 55.776 185.612 55.7395C185.718 55.7031 185.83 55.6893 185.942 55.699H211.995C212.106 55.6893 212.218 55.7031 212.324 55.7395C212.43 55.776 212.527 55.8342 212.609 55.9107C212.692 55.9871 212.758 56.08 212.803 56.1836C212.848 56.2871 212.871 56.3989 212.871 56.512C212.871 56.625 212.848 56.7369 212.803 56.8404C212.758 56.9439 212.692 57.0368 212.609 57.1133C212.527 57.1897 212.43 57.248 212.324 57.2844C212.218 57.3209 212.106 57.3347 211.995 57.3249H211.965Z" fill="#263238"/>
<path d="M211.965 62.9919H185.942C185.83 63.0017 185.718 62.9879 185.612 62.9514C185.506 62.915 185.409 62.8567 185.327 62.7802C185.244 62.7038 185.179 62.6109 185.134 62.5074C185.089 62.4039 185.065 62.292 185.065 62.179C185.065 62.0659 185.089 61.9541 185.134 61.8505C185.179 61.747 185.244 61.6541 185.327 61.5777C185.409 61.5012 185.506 61.443 185.612 61.4065C185.718 61.3701 185.83 61.3563 185.942 61.366H211.995C212.106 61.3563 212.218 61.3701 212.324 61.4065C212.43 61.443 212.527 61.5012 212.609 61.5777C212.692 61.6541 212.758 61.747 212.803 61.8505C212.848 61.9541 212.871 62.0659 212.871 62.179C212.871 62.292 212.848 62.4039 212.803 62.5074C212.758 62.6109 212.692 62.7038 212.609 62.7802C212.527 62.8567 212.43 62.915 212.324 62.9514C212.218 62.9879 212.106 63.0017 211.995 62.9919H211.965Z" fill="#263238"/>
<path d="M211.965 68.6591H185.942C185.836 68.6591 185.731 68.638 185.633 68.597C185.535 68.556 185.446 68.4959 185.371 68.4201C185.296 68.3444 185.237 68.2544 185.196 68.1554C185.156 68.0564 185.135 67.9503 185.135 67.8431C185.135 67.736 185.156 67.6299 185.196 67.5309C185.237 67.4319 185.296 67.3419 185.371 67.2662C185.446 67.1904 185.535 67.1303 185.633 67.0893C185.731 67.0483 185.836 67.0272 185.942 67.0272H211.995C212.209 67.0272 212.414 67.1131 212.565 67.2662C212.716 67.4192 212.801 67.6267 212.801 67.8431C212.801 68.0596 212.716 68.2671 212.565 68.4201C212.414 68.5732 212.209 68.6591 211.995 68.6591H211.965Z" fill="#263238"/>
<path d="M212.18 72.4536H185.29V103.502H212.18V72.4536Z" fill="#92E3A9"/>
<path opacity="0.6" d="M212.18 72.4536H185.29V103.502H212.18V72.4536Z" fill="white"/>
<path d="M103.814 197.714C103.814 199.952 82.6262 201.769 56.4955 201.769C30.3648 201.769 9.17098 199.964 9.17098 197.714C9.17098 195.464 30.3588 193.659 56.4955 193.659C82.6321 193.659 103.814 195.476 103.814 197.714Z" fill="#263238"/>
<path d="M32.9348 123.241C32.9348 123.241 36.5927 121.376 38.1825 122.976C39.7723 124.577 39.1328 141.698 39.611 147.137C39.9006 150.381 40.495 153.589 41.3861 156.72C41.3861 156.72 36.1384 155.764 32.1638 153.712C32.1638 153.712 28.6674 136.627 32.9348 123.241Z" fill="#263238" stroke="#263238" stroke-width="0.75" stroke-linecap="round" stroke-linejoin="round"/>
<path d="M105.762 162.014C105.332 162.014 104.915 161.867 104.578 161.598C104.241 161.329 104.005 160.952 103.907 160.531C103.81 160.109 103.857 159.667 104.04 159.275C104.224 158.884 104.534 158.566 104.92 158.375L122.199 150.554L135.611 135.026C135.936 134.637 136.403 134.394 136.906 134.351C137.41 134.307 137.911 134.467 138.297 134.795C138.684 135.123 138.926 135.592 138.969 136.099C139.012 136.606 138.853 137.11 138.527 137.499L124.858 153.333C124.695 153.535 124.491 153.701 124.261 153.82L106.617 161.816C106.352 161.951 106.059 162.019 105.762 162.014Z" fill="white" stroke="#263238" stroke-width="0.75" stroke-linecap="round" stroke-linejoin="round"/>
<path d="M117.579 155.238L119.473 154.368" stroke="#263238" stroke-width="0.75" stroke-linecap="round" stroke-linejoin="round"/>
<path d="M108.841 159.235L116.329 155.806" stroke="#263238" stroke-width="0.75" stroke-linecap="round" stroke-linejoin="round"/>
<path d="M134.451 140.098L129.461 145.777" stroke="#263238" stroke-width="0.75" stroke-linecap="round" stroke-linejoin="round"/>
<path d="M128.654 146.589L127.524 147.889" stroke="#263238" stroke-width="0.75" stroke-linecap="round" stroke-linejoin="round"/>
<path d="M108.064 168.912C110.177 159.94 104.664 150.942 95.7504 148.814C86.8363 146.687 77.8966 152.236 75.783 161.208C73.6694 170.181 79.1822 179.179 88.0962 181.306C97.0102 183.434 105.95 177.885 108.064 168.912Z" fill="#92E3A9" stroke="#263238" stroke-width="0.747671" stroke-linecap="round" stroke-linejoin="round"/>
<path d="M50.4649 103.262C50.4649 103.262 52.8556 108.905 53.3577 110.006C53.8597 111.107 54.3379 111.408 54.2243 111.756C54.1107 112.105 52.8915 112.508 52.8915 112.508C53.0608 114.245 52.7614 115.995 52.0248 117.574C50.8295 119.98 48.4985 121.238 48.2714 122.748C48.1376 124.2 48.1176 125.66 48.2116 127.115L44.6853 124.204C44.6853 124.204 45.6655 121.352 44.7988 119.258C44.0641 117.545 42.7546 116.146 41.0992 115.306C39.0381 113.944 37.5715 111.842 36.9991 109.428C36.4791 106.631 38.0928 103.665 40.2326 101.571C42.3723 99.4777 46.5919 99.8868 47.0581 100.061C47.5243 100.236 45.8986 98.8581 47.345 98.5452C48.7914 98.2324 49.658 100.35 49.7357 100.699C49.8134 101.048 50.2557 99.1889 50.7219 100.41C51.1881 101.631 50.4649 103.262 50.4649 103.262Z" fill="white"/>
<g style="mix-blend-mode:multiply" opacity="0.5">
<path d="M46.1556 125.437C46.1347 125.033 46.0888 124.631 46.0181 124.234C45.785 123.175 47.2135 119.878 47.6558 115.998C48.0981 112.117 45.0798 106.697 45.0798 106.697L42.8683 100.242C41.8862 100.454 40.977 100.923 40.2326 101.601C38.0928 103.695 36.4791 106.661 36.9991 109.458C37.5715 111.872 39.0381 113.974 41.0992 115.336C42.7546 116.176 44.0641 117.575 44.7988 119.288C45.6655 121.382 44.6853 124.234 44.6853 124.234L46.1556 125.437Z" fill="#92E3A9"/>
</g>
<path d="M50.4649 103.262C50.4649 103.262 52.8556 108.905 53.3577 110.006C53.8597 111.107 54.3379 111.408 54.2243 111.756C54.1107 112.105 52.8915 112.508 52.8915 112.508C53.0608 114.245 52.7614 115.995 52.0248 117.574C50.8295 119.98 48.4985 121.238 48.2714 122.748C48.1376 124.2 48.1176 125.66 48.2116 127.115L44.6853 124.204C44.6853 124.204 45.6655 121.352 44.7988 119.258C44.0641 117.545 42.7546 116.146 41.0992 115.306C39.0381 113.944 37.5715 111.842 36.9991 109.428C36.4791 106.631 38.0929 103.665 40.2326 101.571C42.3723 99.4777 46.5919 99.8868 47.0581 100.061C47.5243 100.236 45.8986 98.8581 47.345 98.5452C48.7914 98.2324 49.658 100.35 49.7357 100.699C49.8134 101.048 50.2557 99.1889 50.7219 100.41C51.1881 101.631 50.4649 103.262 50.4649 103.262Z" stroke="#263238" stroke-width="0.75" stroke-linecap="round" stroke-linejoin="round"/>
<path d="M50.692 106.264C50.692 106.264 49.646 105.974 49.2994 106.868C49.1905 107.073 49.129 107.301 49.1197 107.533C49.1104 107.766 49.1534 107.997 49.2456 108.21" stroke="#263238" stroke-width="0.75" stroke-linecap="round" stroke-linejoin="round"/>
<path d="M51.9113 115.132C51.9113 115.132 50.8713 115.658 50.2318 114.957" stroke="#263238" stroke-width="0.75" stroke-linecap="round" stroke-linejoin="round"/>
<path d="M49.8732 110.252L45.0558 112.362" stroke="#263238" stroke-width="0.75" stroke-linecap="round" stroke-linejoin="round"/>
<path d="M43.0416 114.903C42.3913 115.867 42.0876 117.026 42.181 118.188C42.3244 120.173 42.2766 122.88 41.2665 122.639C40.2564 122.399 41.7447 119.349 41.7447 118.091C41.685 117.133 41.4668 116.192 41.0992 115.306" stroke="#263238" stroke-width="0.75" stroke-linecap="round" stroke-linejoin="round"/>
<path d="M53.3875 108.724L52.2519 109.22" stroke="#263238" stroke-width="0.75" stroke-linecap="round" stroke-linejoin="round"/>
<path d="M52.1324 109.855C52.5329 111.059 52.4313 112.171 51.9053 112.352C51.3793 112.532 50.6262 111.696 50.2258 110.499C49.8253 109.302 49.927 108.177 50.4529 107.996C50.9789 107.816 51.732 108.652 52.1324 109.855Z" stroke="#263238" stroke-width="0.75" stroke-linecap="round" stroke-linejoin="round"/>
<path d="M44.1474 114.523C44.1474 114.523 43.197 113.362 44.0517 113.459C44.3201 113.515 44.5686 113.643 44.7706 113.831C44.9726 114.018 45.1208 114.257 45.1993 114.523" stroke="#263238" stroke-width="0.5" stroke-linecap="round" stroke-linejoin="round"/>
<path d="M70.8697 134.268L67.5167 136.657L68.0367 139.448L71.8559 137.938L70.8697 134.268Z" fill="white" stroke="#263238" stroke-width="0.75" stroke-linecap="round" stroke-linejoin="round"/>
<path d="M67.8634 135.959L69.3696 141.602C69.3696 141.602 59.2329 146.258 57.2306 147.696C55.2284 149.134 53.6445 148.743 53.6445 148.743L52.3177 142.222C52.3177 142.222 53.7581 142.919 56.8242 141.584C59.8903 140.248 67.8634 135.959 67.8634 135.959Z" fill="white" stroke="#263238" stroke-width="0.75" stroke-linecap="round" stroke-linejoin="round"/>
<path d="M72.8421 150.644C72.6383 150.623 72.449 150.528 72.3086 150.378C72.1681 150.228 72.086 150.032 72.0771 149.826L70.7383 127.5C70.7247 127.382 70.7354 127.263 70.7697 127.149C70.804 127.035 70.8612 126.93 70.9378 126.839C71.0143 126.749 71.1086 126.675 71.2146 126.623C71.3207 126.57 71.4363 126.541 71.5543 126.535C71.6722 126.53 71.7901 126.549 71.9004 126.591C72.0107 126.634 72.1112 126.699 72.1955 126.782C72.2799 126.865 72.3463 126.965 72.3907 127.075C72.4351 127.185 72.4565 127.303 72.4536 127.422L73.7924 149.742C73.7981 149.855 73.7813 149.969 73.7432 150.077C73.7051 150.184 73.6463 150.283 73.5702 150.367C73.4942 150.451 73.4023 150.52 73.2999 150.568C73.1976 150.617 73.0867 150.645 72.9736 150.65L72.8421 150.644Z" fill="#263238" stroke="#263238" stroke-width="0.75" stroke-linecap="round" stroke-linejoin="round"/>
<path d="M70.29 133.749C70.0771 133.74 69.8751 133.651 69.7232 133.5C69.5712 133.349 69.4801 133.146 69.4675 132.931C69.4548 132.716 69.5216 132.504 69.6547 132.336C69.7879 132.167 69.9781 132.055 70.1884 132.02L73.5414 131.609C73.6577 131.586 73.7775 131.586 73.8935 131.612C74.0094 131.637 74.119 131.686 74.2152 131.756C74.3114 131.827 74.3923 131.916 74.4527 132.019C74.5131 132.123 74.5517 132.237 74.5662 132.356C74.5806 132.476 74.5706 132.596 74.5367 132.711C74.5028 132.826 74.4458 132.933 74.3692 133.024C74.2926 133.116 74.1981 133.191 74.0917 133.244C73.9852 133.297 73.8691 133.327 73.7506 133.332L70.3976 133.743L70.29 133.749Z" fill="white" stroke="#263238" stroke-width="0.75" stroke-linecap="round" stroke-linejoin="round"/>
<path d="M70.4633 135.494C70.2504 135.485 70.0485 135.396 69.8965 135.245C69.7446 135.094 69.6535 134.891 69.6408 134.676C69.6282 134.461 69.6949 134.248 69.8281 134.08C69.9612 133.912 70.1514 133.8 70.3617 133.765L73.7147 133.354C73.9411 133.328 74.1684 133.394 74.3473 133.537C74.5263 133.679 74.6426 133.887 74.671 134.116C74.6844 134.228 74.6756 134.343 74.6453 134.452C74.615 134.561 74.5637 134.663 74.4943 134.753C74.4249 134.842 74.3388 134.916 74.241 134.972C74.1431 135.028 74.0354 135.063 73.9239 135.077L70.5709 135.488L70.4633 135.494Z" fill="white" stroke="#263238" stroke-width="0.75" stroke-linecap="round" stroke-linejoin="round"/>
<path d="M70.6486 137.082C70.4387 137.081 70.2371 136.999 70.0847 136.853C69.9324 136.707 69.8408 136.508 69.8286 136.296C69.8164 136.084 69.8846 135.875 70.0191 135.713C70.1537 135.55 70.3446 135.445 70.553 135.419L73.7625 135.027C73.8707 135.012 73.9807 135.019 74.0861 135.048C74.1914 135.077 74.2901 135.127 74.3764 135.194C74.4626 135.262 74.5348 135.346 74.5886 135.442C74.6424 135.538 74.6768 135.644 74.6899 135.754C74.7029 135.863 74.6943 135.974 74.6646 136.081C74.6349 136.187 74.5846 136.286 74.5167 136.372C74.4488 136.459 74.3646 136.531 74.269 136.584C74.1734 136.637 74.0683 136.671 73.9598 136.683L70.7502 137.076L70.6486 137.082Z" fill="white" stroke="#263238" stroke-width="0.75" stroke-linecap="round" stroke-linejoin="round"/>
<path d="M71.1865 138.603C71.0212 138.586 70.868 138.507 70.7573 138.382C70.6467 138.257 70.5865 138.094 70.5888 137.926C70.5555 137.745 70.5887 137.558 70.6823 137.399C70.7758 137.241 70.9233 137.123 71.0969 137.068L73.3681 136.699C73.6908 136.657 73.9657 136.953 74.0136 137.376C74.0496 137.557 74.0176 137.746 73.9236 137.904C73.8297 138.063 73.6806 138.181 73.5055 138.234L71.2403 138.597L71.1865 138.603Z" fill="white" stroke="#263238" stroke-width="0.75" stroke-linecap="round" stroke-linejoin="round"/>
<path d="M69.9553 135.845C69.9454 136.009 69.8761 136.164 69.7605 136.28C69.6449 136.397 69.4909 136.466 69.3277 136.476C69.1509 136.525 68.9624 136.507 68.7982 136.425C68.634 136.342 68.5055 136.202 68.4372 136.031L67.9112 133.781C67.8395 133.462 68.1085 133.149 68.5089 133.077C68.6849 133.032 68.8714 133.051 69.034 133.133C69.1965 133.215 69.3242 133.353 69.3935 133.522L69.9254 135.778C69.9254 135.778 69.9493 135.821 69.9553 135.845Z" fill="white" stroke="#263238" stroke-width="0.75" stroke-linecap="round" stroke-linejoin="round"/>
<path d="M43.4122 122.459C43.4122 122.459 47.5183 124.962 49.4249 128.102C51.3315 131.242 52.9512 135.923 53.8776 140.032C54.804 144.141 55.5511 154.867 56.1309 157.081C56.4114 158.256 56.8392 159.39 57.4039 160.456C54.0585 161.706 50.5058 162.299 46.9385 162.201C41.2725 161.966 40.4059 160.57 40.4059 160.57C40.4059 160.57 38.4993 147.889 38.6726 137.818C38.8459 127.747 43.4122 122.459 43.4122 122.459Z" fill="white"/>
<g style="mix-blend-mode:multiply" opacity="0.5">
<path d="M40.9916 133.859C40.9916 133.859 40.3939 134.804 40.8721 132.331C41.259 130.602 41.8889 128.937 42.7428 127.386L45.5459 130.563L47.3031 130.683L46.8369 131.507L50.2258 133.625L48.618 131.718L48.7316 128.806L46.0181 129.648C46.0181 129.648 44.2609 126.472 43.7947 125.437C43.4839 124.727 44.5239 124.125 45.2531 123.807C44.6622 123.343 44.0478 122.912 43.4122 122.513C43.4122 122.513 38.8459 127.807 38.6726 137.872C38.5351 145.855 39.7066 155.475 40.1967 159.121L49.1619 158.621L40.9916 133.859Z" fill="#92E3A9"/>
</g>
<path d="M43.4122 122.459C43.4122 122.459 47.5183 124.962 49.4249 128.102C51.3315 131.242 52.9512 135.923 53.8776 140.032C54.804 144.141 55.5511 154.867 56.1309 157.081C56.4114 158.256 56.8392 159.39 57.4039 160.456C54.0585 161.706 50.5058 162.299 46.9385 162.201C41.2725 161.966 40.4059 160.57 40.4059 160.57C40.4059 160.57 38.4993 147.889 38.6726 137.818C38.8459 127.747 43.4122 122.459 43.4122 122.459Z" stroke="#263238" stroke-width="0.75" stroke-linecap="round" stroke-linejoin="round"/>
<path d="M42.1989 124.498L46.4783 129.672L48.7316 128.8L48.618 131.712L52.0248 135.845" stroke="#263238" stroke-width="0.75" stroke-linecap="round" stroke-linejoin="round"/>
<path d="M39.5691 135.466C39.5691 135.466 40.0473 140.279 41.4757 141.422" stroke="#263238" stroke-width="0.5" stroke-linecap="round" stroke-linejoin="round"/>
<path d="M39.856 140.657C39.856 140.657 40.4537 142.471 41.9539 143.075" stroke="#263238" stroke-width="0.5" stroke-linecap="round" stroke-linejoin="round"/>
<path d="M52.2639 138.058L49.7835 139.026L50.166 140.089L52.4551 139.219" stroke="#263238" stroke-width="0.5" stroke-linecap="round" stroke-linejoin="round"/>
<path d="M68.993 156.185C68.7879 156.184 68.5896 156.11 68.434 155.976C68.2784 155.841 68.1757 155.655 68.1443 155.451L65.0483 135.213C65.0314 135.1 65.0368 134.985 65.064 134.875C65.0912 134.764 65.1398 134.66 65.2069 134.569C65.2741 134.477 65.3585 134.4 65.4554 134.341C65.5522 134.282 65.6597 134.243 65.7715 134.226C65.8834 134.209 65.9974 134.215 66.1072 134.242C66.217 134.269 66.3204 134.318 66.4114 134.386C66.5024 134.453 66.5793 134.538 66.6377 134.636C66.6961 134.733 66.7348 134.842 66.7517 134.954L69.8477 155.192C69.8804 155.419 69.8227 155.65 69.6874 155.835C69.552 156.02 69.3498 156.143 69.1245 156.179L68.993 156.185Z" fill="#263238" stroke="#263238" stroke-width="0.75" stroke-linecap="round" stroke-linejoin="round"/>
<path d="M50.4649 103.262C50.4649 103.262 51.1582 101.631 50.698 100.41C50.2377 99.1888 49.7716 101.048 49.7118 100.699C49.652 100.35 48.7914 98.2564 47.3211 98.5451C45.8508 98.8339 47.4944 100.236 47.0342 100.061C46.5739 99.8867 42.3483 99.4596 40.2086 101.571C38.0689 103.683 36.4552 106.631 36.9752 109.428C37.5476 111.842 39.0142 113.944 41.0753 115.306C42.1571 115.864 43.1007 116.66 43.8366 117.634C44.4577 117.132 45.0247 116.565 45.528 115.944C45.2275 116.04 44.9088 116.064 44.5973 116.014C44.2859 115.964 43.9905 115.841 43.735 115.655C42.8085 115.011 42.3483 113.152 43.5078 112.22C44.6673 111.287 45.785 113.405 45.785 113.405C46.9804 114.048 46.5321 112.358 46.0719 111.6C45.6117 110.842 46.2452 110.024 46.4185 108.923C46.5919 107.822 45.0917 107.407 45.265 106.3C45.4383 105.193 50.4649 103.262 50.4649 103.262Z" fill="#263238" stroke="#263238" stroke-width="0.75" stroke-linecap="round" stroke-linejoin="round"/>
<path d="M47.6797 104.044C47.6797 104.044 45.5818 102.985 44.243 104.645C42.9042 106.306 43.1971 109.067 42.1451 110.698C41.8992 111.147 41.557 111.535 41.1436 111.835C40.7301 112.134 40.2556 112.338 39.7544 112.43" stroke="white" stroke-width="0.5" stroke-linecap="round" stroke-linejoin="round"/>
<path d="M38.5172 109.524C39.1491 109.593 39.7824 109.409 40.2817 109.014C40.781 108.618 41.1066 108.041 41.1888 107.407C41.667 105 44.3386 101.547 47.0162 101.451C49.6939 101.355 49.4966 103.256 49.4966 103.256" stroke="white" stroke-width="0.5" stroke-linecap="round" stroke-linejoin="round"/>
<path d="M61.6236 142.998L63.2971 141.891C63.2971 141.891 64.7435 139.214 64.8571 139.039C64.9706 138.865 68.5029 137.12 68.7898 137.355C68.9524 137.498 69.079 137.678 69.159 137.879C69.239 138.081 69.2702 138.299 69.25 138.516C69.1365 138.811 68.73 139.117 68.73 139.394C68.73 139.671 69.1962 141.891 69.1962 142.474C69.1962 143.058 66.8055 144.045 65.8432 144.339C64.881 144.634 63.59 144.628 63.2971 144.863L62.4902 145.5L61.6236 142.998Z" fill="white" stroke="#263238" stroke-width="0.75" stroke-linecap="round" stroke-linejoin="round"/>
<path d="M42.1989 131.248C42.1989 131.248 40.6987 131.651 41.2187 135.899C41.7387 140.146 45.9583 154.458 47.4585 156.209C48.9587 157.96 63.5959 148.177 63.5959 148.177L61.8029 142.589C61.8029 142.589 51.9172 146.487 51.1104 146.661C50.3035 146.836 47.9845 134.154 47.1776 132.584" fill="white"/>
<g style="mix-blend-mode:multiply" opacity="0.5">
<path d="M63.327 147.365C60.2848 148.334 53.2441 150.542 52.3296 150.446C51.1343 150.331 50.8115 149.621 50.1063 148.683C49.401 147.744 48.355 151.504 47.4167 151.859C46.4783 152.214 47.1836 147.648 47.5362 146.68C47.8889 145.711 46.7174 147.155 46.7174 147.155C46.7174 147.155 44.3805 142.342 43.209 139.033C42.4664 136.873 41.8811 134.661 41.4578 132.415L41.1948 133.065C41.0627 133.997 41.0627 134.943 41.1948 135.875C41.7148 140.122 45.9344 154.434 47.4346 156.185C48.9348 157.936 63.572 148.153 63.572 148.153L63.327 147.365Z" fill="#92E3A9"/>
</g>
<path d="M42.1989 131.248C42.1989 131.248 40.6987 131.651 41.2187 135.899C41.7387 140.146 45.9583 154.458 47.4585 156.209C48.9587 157.96 63.5959 148.177 63.5959 148.177L61.8029 142.589C61.8029 142.589 51.9172 146.487 51.1104 146.661C50.3035 146.836 47.9845 134.154 47.1776 132.584" stroke="#263238" stroke-width="0.75" stroke-linecap="round" stroke-linejoin="round"/>
<path d="M51.1044 146.661C50.5151 147.045 50.0094 147.545 49.618 148.132C49.2265 148.718 48.9575 149.378 48.8272 150.073" stroke="#263238" stroke-width="0.5" stroke-linecap="round" stroke-linejoin="round"/>
<path d="M48.9228 147.955C48.5213 148.358 48.2044 148.839 47.9908 149.368C47.7773 149.897 47.6715 150.464 47.6797 151.035" stroke="#263238" stroke-width="0.5" stroke-linecap="round" stroke-linejoin="round"/>
<path d="M34.0226 152.684C34.0226 152.684 32.4328 147.347 32.642 136.254C32.8512 125.16 33.4907 124.095 32.9587 123.241C32.4268 122.387 22.7981 128.096 15.626 136.416C11.0597 141.734 5.22628 149.609 4.84376 162.014C4.52699 171.935 9.21282 179.954 12.1534 182.174C17.2397 186.012 24.1848 185.748 24.9259 185.748H95.9067C95.9067 185.748 100.461 184.147 101.519 179.99C102.577 175.833 106.181 163.988 98.662 149.802C93.7251 140.495 84.8854 130.496 83.3972 131.242C81.9089 131.988 76.3505 142.673 68.7779 149.375C61.6236 155.71 48.0084 160.36 34.0226 152.684Z" fill="#92E3A9" stroke="#263238" stroke-width="0.75" stroke-linecap="round" stroke-linejoin="round"/>
<path d="M98.6799 149.802C97.622 147.817 96.3908 145.801 95.0938 143.864C90.9459 145.302 80.5462 149.597 74.7726 158.176C69.8178 165.54 73.1111 177.223 83.439 185.748H95.9127C95.9127 185.748 100.467 184.147 101.525 179.984C102.583 175.821 106.181 163.988 98.6799 149.802Z" fill="white" stroke="#263238" stroke-width="0.75" stroke-linecap="round" stroke-linejoin="round"/>
<path d="M100.957 172.248C100.846 173.291 100.68 174.359 100.461 175.454" stroke="#263238" stroke-width="0.75" stroke-linecap="round" stroke-linejoin="round"/>
<path d="M97.4009 151.613C97.4009 151.613 101.698 159.067 101.148 169.938" stroke="#263238" stroke-width="0.75" stroke-linecap="round" stroke-linejoin="round"/>
<path d="M32.3372 184.232V173.565C26.8086 171.76 23.2404 169.619 19.9113 167.609C15.1299 164.728 11.7829 156.961 14.0301 151.931C16.0922 147.287 21.8 145.211 24.8362 147.287C27.7994 149.247 30.8595 151.054 34.0047 152.701C34.0047 152.701 32.4149 147.365 32.6241 136.272C32.8332 125.178 33.4728 124.113 32.9408 123.259C32.4089 122.405 22.7802 128.114 15.608 136.434C11.0597 141.734 5.22628 149.609 4.84376 162.014C4.52699 171.935 9.21283 179.954 12.1534 182.174C17.2397 186.012 24.1848 185.748 24.9259 185.748H32.3372C32.3372 185.2 32.3372 184.689 32.3372 184.232Z" fill="white" stroke="#263238" stroke-width="0.75" stroke-linecap="round" stroke-linejoin="round"/>
<path d="M7.09703 164.102C7.15116 165.415 7.29092 166.724 7.51541 168.019" stroke="#263238" stroke-width="0.75" stroke-linecap="round" stroke-linejoin="round"/>
<path d="M24.1848 131.297C22.4634 132.849 19.8934 134.672 18.2976 136.53C13.7253 141.849 7.47954 149.447 7.08507 161.852" stroke="#263238" stroke-width="0.75" stroke-linecap="round" stroke-linejoin="round"/>
<path d="M48.8571 184.466C48.8571 190.332 39.8919 190.867 28.775 190.867C17.6581 190.867 8.69285 190.651 8.69285 184.466C8.69285 175.924 17.6581 167.621 28.775 167.621C39.8919 167.621 48.8571 175.924 48.8571 184.466Z" fill="#92E3A9" stroke="#263238" stroke-width="0.75" stroke-linecap="round" stroke-linejoin="round"/>
<path d="M28.7511 167.615C18.4889 167.615 10.0376 174.726 8.82433 182.553C10.0197 187.48 18.4889 187.667 28.7511 187.667C39.0133 187.667 47.4406 187.21 48.6718 182.517C47.4645 174.702 39.0193 167.615 28.7511 167.615Z" fill="#263238" stroke="#263238" stroke-width="0.75" stroke-linecap="round" stroke-linejoin="round"/>
<path d="M100.778 185.092C100.778 190.404 92.6373 190.891 82.5963 190.891C72.5552 190.891 64.4088 190.699 64.4088 185.092C64.4088 177.361 72.5492 169.829 82.5963 169.829C92.6433 169.829 100.778 177.361 100.778 185.092Z" fill="#92E3A9" stroke="#263238" stroke-width="0.75" stroke-linecap="round" stroke-linejoin="round"/>
<path d="M82.5963 169.829C73.3023 169.829 65.646 176.272 64.5522 183.365C65.646 187.823 73.3023 187.992 82.5963 187.992C91.8902 187.992 99.5167 187.577 100.634 183.329C99.5167 176.254 91.8723 169.829 82.5963 169.829Z" fill="#263238" stroke="#263238" stroke-width="0.75" stroke-linecap="round" stroke-linejoin="round"/>
<path d="M153.392 121.827C152.681 121.56 152.105 121.019 151.79 120.324C151.475 119.629 151.447 118.837 151.712 118.121L159.781 96.4095C159.912 96.054 160.112 95.728 160.369 95.4502C160.625 95.1724 160.934 94.9482 161.277 94.7903C161.619 94.6325 161.99 94.5442 162.366 94.5304C162.743 94.5166 163.118 94.5776 163.472 94.71C163.825 94.8423 164.149 95.0434 164.425 95.3017C164.701 95.56 164.923 95.8705 165.08 96.2154C165.237 96.5604 165.325 96.9331 165.338 97.3122C165.352 97.6913 165.292 98.0694 165.16 98.4249L157.091 120.137C156.96 120.493 156.76 120.82 156.502 121.098C156.245 121.376 155.935 121.6 155.591 121.757C155.247 121.914 154.876 122.001 154.498 122.013C154.121 122.025 153.745 121.962 153.392 121.827Z" fill="white" stroke="#263238" stroke-width="0.75" stroke-linecap="round" stroke-linejoin="round"/>
<path d="M162.68 100.32L158.149 112.304" stroke="#263238" stroke-width="0.75" stroke-linecap="round" stroke-linejoin="round"/>
<path d="M141.115 154.916C140.489 154.681 139.915 154.324 139.426 153.866C138.937 153.407 138.543 152.857 138.265 152.245C137.988 151.633 137.833 150.972 137.809 150.3C137.785 149.628 137.893 148.958 138.127 148.328L149.644 117.327C150.12 116.055 151.078 115.025 152.308 114.463C153.538 113.902 154.94 113.856 156.204 114.334C157.468 114.813 158.491 115.777 159.049 117.016C159.607 118.254 159.653 119.664 159.177 120.937L147.636 151.907C147.165 153.174 146.214 154.202 144.992 154.765C143.77 155.329 142.377 155.383 141.115 154.916Z" fill="#263238" stroke="#263238" stroke-width="0.75" stroke-linecap="round" stroke-linejoin="round"/>
<path d="M183.868 40.719C178.126 38.5576 171.876 38.1587 165.908 39.5727C159.941 40.9866 154.525 44.1499 150.343 48.6626C146.162 53.1752 143.404 58.8345 142.419 64.9248C141.433 71.0151 142.263 77.2629 144.805 82.8781C147.347 88.4932 151.486 93.2236 156.699 96.471C161.912 99.7184 167.964 101.337 174.091 101.122C180.217 100.907 186.143 98.8683 191.119 95.2635C196.094 91.6587 199.896 86.6497 202.043 80.87C204.921 73.1195 204.623 64.5359 201.215 57.0065C197.806 49.4772 191.566 43.6186 183.868 40.719ZM164.031 94.1054C159.283 92.3174 155.169 89.1527 152.209 85.0114C149.248 80.8701 147.574 75.9382 147.399 70.8393C147.223 65.7404 148.553 60.7035 151.221 56.3656C153.889 52.0277 157.775 48.5835 162.388 46.4685C167.001 44.3536 172.133 43.6629 177.135 44.4837C182.138 45.3046 186.786 47.6002 190.493 51.0802C194.2 54.5603 196.798 59.0684 197.959 64.0347C199.12 69.001 198.792 74.2023 197.017 78.981C194.634 85.3889 189.821 90.5819 183.635 93.4181C177.449 96.2544 170.397 96.5016 164.031 94.1054Z" fill="#263238" stroke="#263238" stroke-width="0.75" stroke-linecap="round" stroke-linejoin="round"/>
<path d="M152.226 60.4637C153.47 57.7036 155.245 55.219 157.449 53.1537C159.652 51.0885 162.241 49.4835 165.065 48.4316" stroke="#263238" stroke-width="0.75" stroke-linecap="round" stroke-linejoin="round"/>
<path d="M150.176 70.0171C150.17 67.6769 150.521 65.3497 151.216 63.1167" stroke="#263238" stroke-width="0.75" stroke-linecap="round" stroke-linejoin="round"/>
<path d="M143.626 76.382C142.082 69.2267 143.168 61.7509 146.681 55.3394C150.194 48.9279 155.896 44.0153 162.732 41.5115C169.568 39.0077 177.073 39.0826 183.858 41.7221C190.644 44.3616 196.248 49.387 199.634 55.8673" stroke="white" stroke-miterlimit="10"/>
<path d="M202.874 66.3353C203.75 73.5444 202.022 80.8303 198.005 86.8637C193.988 92.897 187.95 97.2757 180.993 99.2008C174.035 101.126 166.622 100.469 160.106 97.3503C153.59 94.2315 148.404 88.8585 145.496 82.2116" stroke="white" stroke-miterlimit="10"/>
<path d="M200.842 58.4843C201.622 60.3984 202.205 62.3881 202.581 64.4221" stroke="white" stroke-miterlimit="10"/>
<path d="M52.6584 176.302C57.4216 176.302 61.2829 172.416 61.2829 167.621C61.2829 162.827 57.4216 158.94 52.6584 158.94C47.8951 158.94 44.0338 162.827 44.0338 167.621C44.0338 172.416 47.8951 176.302 52.6584 176.302Z" fill="#263238"/>
<path d="M52.6584 174.949C56.6789 174.949 59.9381 171.668 59.9381 167.621C59.9381 163.574 56.6789 160.294 52.6584 160.294C48.6379 160.294 45.3786 163.574 45.3786 167.621C45.3786 171.668 48.6379 174.949 52.6584 174.949Z" fill="white" stroke="#263238" stroke-width="0.75" stroke-linecap="round" stroke-linejoin="round"/>
<path d="M50.4469 169.787C50.3838 169.722 50.3484 169.635 50.3484 169.544C50.3484 169.453 50.3838 169.365 50.4469 169.3L52.4193 167.315C52.484 167.251 52.5709 167.215 52.6613 167.215C52.7518 167.215 52.8387 167.251 52.9034 167.315C52.9363 167.347 52.9625 167.385 52.9803 167.427C52.9982 167.47 53.0074 167.515 53.0074 167.561C53.0074 167.607 52.9982 167.653 52.9803 167.695C52.9625 167.738 52.9363 167.776 52.9034 167.808L50.937 169.787C50.9053 169.82 50.8672 169.847 50.8251 169.865C50.783 169.883 50.7377 169.892 50.692 169.892C50.6462 169.892 50.601 169.883 50.5589 169.865C50.5168 169.847 50.4787 169.82 50.4469 169.787Z" fill="#263238"/>
<path d="M47.4466 172.807C47.3878 172.751 47.341 172.683 47.309 172.608C47.277 172.533 47.2605 172.453 47.2605 172.371C47.2605 172.289 47.277 172.209 47.309 172.134C47.341 172.059 47.3878 171.991 47.4466 171.935L50.2557 169.107C50.3116 169.047 50.3792 168.999 50.4542 168.967C50.5293 168.934 50.6102 168.917 50.692 168.917C50.7738 168.917 50.8547 168.934 50.9298 168.967C51.0048 168.999 51.0724 169.047 51.1283 169.107C51.1871 169.164 51.2339 169.231 51.2658 169.306C51.2978 169.381 51.3143 169.462 51.3143 169.544C51.3143 169.625 51.2978 169.706 51.2658 169.781C51.2339 169.856 51.1871 169.924 51.1283 169.98L48.3192 172.807C48.2633 172.867 48.1957 172.915 48.1207 172.948C48.0456 172.981 47.9647 172.998 47.8829 172.998C47.8011 172.998 47.7201 172.981 47.6451 172.948C47.57 172.915 47.5025 172.867 47.4466 172.807Z" fill="#263238"/>
<path d="M57.8343 167.742C58.359 167.214 58.7165 166.542 58.8616 165.81C59.0067 165.078 58.9328 164.32 58.6493 163.63C58.3659 162.941 57.8856 162.351 57.2692 161.936C56.6528 161.522 55.928 161.3 55.1865 161.3C54.4451 161.3 53.7203 161.522 53.1039 161.936C52.4875 162.351 52.0072 162.941 51.7238 163.63C51.4403 164.32 51.3664 165.078 51.5115 165.81C51.6566 166.542 52.0141 167.214 52.5388 167.742C53.2414 168.448 54.1937 168.844 55.1865 168.844C56.1794 168.844 57.1317 168.448 57.8343 167.742Z" fill="#263238"/>
<path d="M57.1171 167.014C57.4973 166.63 57.7559 166.141 57.8603 165.609C57.9647 165.077 57.9102 164.526 57.7036 164.025C57.4971 163.525 57.1477 163.097 56.6997 162.796C56.2517 162.495 55.7252 162.334 55.1865 162.334C54.6479 162.334 54.1214 162.495 53.6734 162.796C53.2254 163.097 52.876 163.525 52.6695 164.025C52.4629 164.526 52.4084 165.077 52.5128 165.609C52.6172 166.141 52.8758 166.63 53.256 167.014C53.5092 167.27 53.8101 167.472 54.1414 167.611C54.4727 167.749 54.8278 167.821 55.1865 167.821C55.5453 167.821 55.9004 167.749 56.2317 167.611C56.563 167.472 56.8639 167.27 57.1171 167.014Z" fill="white"/>
<path d="M159.644 136.663C159.644 137.427 159.342 138.16 158.805 138.7C158.268 139.241 157.54 139.544 156.781 139.544H136.597C136.21 139.562 135.824 139.501 135.462 139.364C135.099 139.228 134.768 139.019 134.489 138.749C134.209 138.48 133.986 138.157 133.834 137.799C133.682 137.441 133.603 137.055 133.603 136.666C133.603 136.276 133.682 135.891 133.834 135.533C133.986 135.175 134.209 134.851 134.489 134.582C134.768 134.313 135.099 134.104 135.462 133.967C135.824 133.831 136.21 133.769 136.597 133.787H156.781C157.539 133.787 158.266 134.09 158.803 134.629C159.34 135.168 159.642 135.9 159.644 136.663Z" fill="#92E3A9" stroke="#263238" stroke-width="0.75" stroke-linecap="round" stroke-linejoin="round"/>
<path d="M147.564 138.654C148.442 138.654 149.154 137.938 149.154 137.054C149.154 136.17 148.442 135.454 147.564 135.454C146.686 135.454 145.975 136.17 145.975 137.054C145.975 137.938 146.686 138.654 147.564 138.654Z" fill="white" stroke="#263238" stroke-width="0.75" stroke-linecap="round" stroke-linejoin="round"/>
<path d="M123.4 155.836C125.539 155.836 127.273 154.091 127.273 151.938C127.273 149.785 125.539 148.039 123.4 148.039C121.261 148.039 119.527 149.785 119.527 151.938C119.527 154.091 121.261 155.836 123.4 155.836Z" fill="#92E3A9" stroke="#263238" stroke-width="0.75" stroke-linecap="round" stroke-linejoin="round"/>
<path d="M124.852 151.938C124.854 151.648 124.769 151.365 124.611 151.124C124.452 150.883 124.225 150.694 123.96 150.583C123.695 150.471 123.403 150.441 123.12 150.497C122.838 150.553 122.579 150.691 122.375 150.896C122.171 151.1 122.033 151.36 121.976 151.644C121.92 151.928 121.948 152.222 122.058 152.49C122.167 152.757 122.354 152.986 122.593 153.147C122.832 153.308 123.113 153.393 123.4 153.393C123.784 153.393 124.153 153.24 124.425 152.967C124.697 152.695 124.851 152.324 124.852 151.938Z" fill="white" stroke="#263238" stroke-width="0.75" stroke-linecap="round" stroke-linejoin="round"/>
<path d="M136.597 140.633C138.736 140.633 140.47 138.888 140.47 136.735C140.47 134.582 138.736 132.837 136.597 132.837C134.458 132.837 132.724 134.582 132.724 136.735C132.724 138.888 134.458 140.633 136.597 140.633Z" fill="#92E3A9" stroke="#263238" stroke-width="0.75" stroke-linecap="round" stroke-linejoin="round"/>
<path d="M136.597 138.239C137.422 138.239 138.091 137.566 138.091 136.735C138.091 135.904 137.422 135.231 136.597 135.231C135.772 135.231 135.103 135.904 135.103 136.735C135.103 137.566 135.772 138.239 136.597 138.239Z" fill="white" stroke="#263238" stroke-width="0.75" stroke-linecap="round" stroke-linejoin="round"/>
</svg>
